<?xml version="1.0" encoding="UTF-8" standalone="no"?>
<svg
   xmlns:dc="http://purl.org/dc/elements/1.1/"
   xmlns:cc="http://creativecommons.org/ns#"
   xmlns:rdf="http://www.w3.org/1999/02/22-rdf-syntax-ns#"
   xmlns:svg="http://www.w3.org/2000/svg"
   xmlns="http://www.w3.org/2000/svg"
   xmlns:sodipodi="http://sodipodi.sourceforge.net/DTD/sodipodi-0.dtd"
   xmlns:inkscape="http://www.inkscape.org/namespaces/inkscape"
   color-interpolation="auto"
   color-rendering="auto"
   fill="black"
   fill-opacity="1"
   font-family="'Dialog'"
   font-size="12"
   font-style="normal"
   font-weight="normal"
   height="30"
   image-rendering="auto"
   shape-rendering="auto"
   stroke="black"
   stroke-dasharray="none"
   stroke-dashoffset="0"
   stroke-linecap="square"
   stroke-linejoin="miter"
   stroke-miterlimit="10"
   stroke-opacity="1"
   stroke-width="1"
   text-rendering="auto"
   width="50"
   id="svg8141"
   version="1.1"
   inkscape:version="0.48.4 r9939"
   sodipodi:docname="triangleemicircle.svg">
  <metadata
     id="metadata8182">
    <rdf:RDF>
      <cc:Work
         rdf:about="">
        <dc:format>image/svg+xml</dc:format>
        <dc:type
           rdf:resource="http://purl.org/dc/dcmitype/StillImage" />
      </cc:Work>
    </rdf:RDF>
  </metadata>
  <sodipodi:namedview
     pagecolor="#ffffff"
     bordercolor="#666666"
     borderopacity="1"
     objecttolerance="10"
     gridtolerance="10"
     guidetolerance="10"
     inkscape:pageopacity="0"
     inkscape:pageshadow="2"
     inkscape:window-width="640"
     inkscape:window-height="480"
     id="namedview8180"
     showgrid="false"
     inkscape:zoom="0.41796875"
     inkscape:cx="384"
     inkscape:cy="165"
     inkscape:window-x="65"
     inkscape:window-y="24"
     inkscape:window-maximized="0"
     inkscape:current-layer="svg8141" />
  <!--Generated by the Batik Graphics2D SVG Generator-->
  <defs
     id="genericDefs" />
  <g
     id="g8144"
     transform="translate(2.3925234,-229.68224)">
    <defs
       id="defs1">
      <clipPath
         clipPathUnits="userSpaceOnUse"
         id="clipPath1">
        <path
           d="M 0,0 768,0 768,330 0,330 0,0 z"
           id="path8148"
           inkscape:connector-curvature="0" />
      </clipPath>
    </defs>
    <g
       text-rendering="optimizeLegibility"
       id="g8150">
      <path
         clip-path="url(#clipPath1)"
         d="m 42.2444,245.4876 -0.7076,-1.1656 -0.7763,0.947 m -1.6027,-0.2362 c 0,0 -0.9607,1.3747 -1.484,-0.2186 z"
         stroke-miterlimit="1"
         id="path8152"
         inkscape:connector-curvature="0"
         style="stroke:none" />
      <path
         clip-path="url(#clipPath1)"
         d="m 42.2444,245.4876 -0.7076,-1.1656 -0.7763,0.947 m -1.6027,-0.2362 c 0,0 -0.9607,1.3747 -1.484,-0.2186 z"
         stroke-miterlimit="1"
         id="path8154"
         inkscape:connector-curvature="0"
         style="fill:none;stroke-linecap:butt;stroke-miterlimit:1" />
      <path
         clip-path="url(#clipPath1)"
         d="m 36.3085,244.613 -0.7076,-1.1656 -0.7764,0.947 m -1.6026,-0.2362 c 0,0 -0.9607,1.3747 -1.484,-0.2186 z"
         stroke-miterlimit="1"
         id="path8156"
         inkscape:connector-curvature="0"
         style="stroke:none" />
      <path
         clip-path="url(#clipPath1)"
         d="m 36.3085,244.613 -0.7076,-1.1656 -0.7764,0.947 m -1.6026,-0.2362 c 0,0 -0.9607,1.3747 -1.484,-0.2186 z"
         stroke-miterlimit="1"
         id="path8158"
         inkscape:connector-curvature="0"
         style="fill:none;stroke-linecap:butt;stroke-miterlimit:1" />
      <path
         clip-path="url(#clipPath1)"
         d="m 30.3726,243.7384 -0.7076,-1.1656 -0.7764,0.9469 m -1.6027,-0.2361 c 0,0 -0.9606,1.3746 -1.4839,-0.2186 z"
         stroke-miterlimit="1"
         id="path8160"
         inkscape:connector-curvature="0"
         style="stroke:none" />
      <path
         clip-path="url(#clipPath1)"
         d="m 30.3726,243.7384 -0.7076,-1.1656 -0.7764,0.9469 m -1.6027,-0.2361 c 0,0 -0.9606,1.3746 -1.4839,-0.2186 z"
         stroke-miterlimit="1"
         id="path8162"
         inkscape:connector-curvature="0"
         style="fill:none;stroke-linecap:butt;stroke-miterlimit:1" />
      <path
         clip-path="url(#clipPath1)"
         d="m 24.4361,242.8674 -0.6898,-1.1762 -0.7907,0.9351 m -1.5989,-0.2605 c 0,0 -0.9814,1.36 -1.4805,-0.2411 z"
         stroke-miterlimit="1"
         id="path8164"
         inkscape:connector-curvature="0"
         style="stroke:none" />
      <path
         clip-path="url(#clipPath1)"
         d="m 24.4361,242.8674 -0.6898,-1.1762 -0.7907,0.9351 m -1.5989,-0.2605 c 0,0 -0.9814,1.36 -1.4805,-0.2411 z"
         stroke-miterlimit="1"
         id="path8166"
         inkscape:connector-curvature="0"
         style="fill:none;stroke-linecap:butt;stroke-miterlimit:1" />
      <path
         clip-path="url(#clipPath1)"
         d="m 18.5142,241.9028 -0.6899,-1.1762 -0.7906,0.9351 m -1.5989,-0.2605 c 0,0 -0.9814,1.3599 -1.4805,-0.2411 z"
         stroke-miterlimit="1"
         id="path8168"
         inkscape:connector-curvature="0"
         style="stroke:none" />
      <path
         clip-path="url(#clipPath1)"
         d="m 18.5142,241.9028 -0.6899,-1.1762 -0.7906,0.9351 m -1.5989,-0.2605 c 0,0 -0.9814,1.3599 -1.4805,-0.2411 z"
         stroke-miterlimit="1"
         id="path8170"
         inkscape:connector-curvature="0"
         style="fill:none;stroke-linecap:butt;stroke-miterlimit:1" />
      <path
         clip-path="url(#clipPath1)"
         d="m 12.5922,240.9382 -0.6898,-1.1762 -0.7907,0.9351 m -1.5989,-0.2605 c 0,0 -0.9814,1.3599 -1.4805,-0.2412 z"
         stroke-miterlimit="1"
         id="path8172"
         inkscape:connector-curvature="0"
         style="stroke:none" />
      <path
         clip-path="url(#clipPath1)"
         d="m 12.5922,240.9382 -0.6898,-1.1762 -0.7907,0.9351 m -1.5989,-0.2605 c 0,0 -0.9814,1.3599 -1.4805,-0.2412 z"
         stroke-miterlimit="1"
         id="path8174"
         inkscape:connector-curvature="0"
         style="fill:none;stroke-linecap:butt;stroke-miterlimit:1" />
      <path
         clip-path="url(#clipPath1)"
         d="m 6.6703,239.9736 -0.6899,-1.1762 -0.7906,0.935 M 3.5909,239.472 c 0,0 -0.9814,1.3599 -1.4805,-0.2412 z"
         stroke-miterlimit="1"
         id="path8176"
         inkscape:connector-curvature="0"
         style="stroke:none" />
      <path
         clip-path="url(#clipPath1)"
         d="m 6.6703,239.9736 -0.6899,-1.1762 -0.7906,0.935 M 3.5909,239.472 c 0,0 -0.9814,1.3599 -1.4805,-0.2412 z"
         stroke-miterlimit="1"
         id="path8178"
         inkscape:connector-curvature="0"
         style="fill:none;stroke-linecap:butt;stroke-miterlimit:1" />
    </g>
  </g>
</svg>
