<?xml version="1.0" encoding="iso-8859-1"?>
<!-- Generator: Adobe Illustrator 19.1.0, SVG Export Plug-In . SVG Version: 6.00 Build 0)  -->
<svg version="1.1" id="Capa_1" xmlns="http://www.w3.org/2000/svg" xmlns:xlink="http://www.w3.org/1999/xlink" x="0px" y="0px"
	 viewBox="0 0 401.134 401.134" style="enable-background:new 0 0 401.134 401.134;" xml:space="preserve">
<g>
	<g>
		<g>
			<path style="fill:#010002;" d="M209.78,250.321c0,9.487-7.689,17.196-17.186,17.196s-17.186-7.689-17.186-17.196
				s7.689-17.186,17.186-17.186C202.081,233.136,209.78,240.835,209.78,250.321z M356.069,0v311.014h-97.848l-57.683,90.12
				l-57.654-90.12H45.065V0H356.069z M247.727,74.722l-82.372,46.545l46.535,82.392l82.382-46.555L247.727,74.722z M192.594,59.08
				l12.076,21.358l21.377-12.056l-12.086-21.367L192.594,59.08z M139.591,73.276l18.612,32.906l32.906-18.583l-18.593-32.925
				L139.591,73.276z M330.588,188.769l-28.959-16.551l-88.752,49.027c-3.156-2.208-6.683-3.781-10.464-4.866L116.768,68.508
				L57.326,93.647l3.547,8.441l51.997-21.993l78.122,134.877c-18.827,0.86-33.922,16.287-33.922,35.348
				c0,19.618,15.925,35.524,35.515,35.524c19.628,0,35.544-15.916,35.544-35.524c0-8.588-3.166-16.345-8.256-22.491l81.679-45.119
				l24.494,13.991L330.588,188.769z"/>
		</g>
	</g>
</g>
<g>
</g>
<g>
</g>
<g>
</g>
<g>
</g>
<g>
</g>
<g>
</g>
<g>
</g>
<g>
</g>
<g>
</g>
<g>
</g>
<g>
</g>
<g>
</g>
<g>
</g>
<g>
</g>
<g>
</g>
</svg>
