<?xml version="1.0" encoding="iso-8859-1"?>
<!-- Generator: Adobe Illustrator 19.1.0, SVG Export Plug-In . SVG Version: 6.00 Build 0)  -->
<svg version="1.1" id="Capa_1" xmlns="http://www.w3.org/2000/svg" xmlns:xlink="http://www.w3.org/1999/xlink" x="0px" y="0px"
	 viewBox="0 0 465.959 465.959" style="enable-background:new 0 0 465.959 465.959;" xml:space="preserve">
<g>
	<g>
		<g>
			<path style="fill:#010002;" d="M52.344,0v361.271H166l66.974,104.687l66.974-104.687h113.666V0H52.344z M233.834,43.673
				c10.669,0.518,20.801,3.097,30.033,7.347l-0.02-0.049l0.44,0.244l-0.42-0.195c18.456,29.828,23.067,57.107,21.817,79.49
				c-1.192,21.358-18.212,31.167-18.358,31.245c-24.162,15.925-28.724,37.166-33.512,55.602L233.834,43.673L233.834,43.673z
				 M228.959,43.165v173.694c-4.768-18.436-9.331-39.667-33.492-55.582c-0.156-0.098-17.176-9.907-18.358-31.255
				c-1.241-22.393,3.38-49.662,21.827-79.5C208.158,46.271,218.27,43.702,228.959,43.165z M184.69,193.625
				c-1.68-1.114-7.308-5.442-7.308-5.442c-17.997-14.997-29.447-37.576-29.447-62.832c0-29.281,15.378-54.938,38.485-69.397
				c-17.293,29.115-23.468,54.899-18.319,76.657c5.247,22.061,20.244,31.489,20.84,31.851c31.831,20.977,39.862,52.3,41.562,71.977
				c0,0-0.176,11.793,0,14.47v3.244l-0.078,0.518l0.078,0.02v0.176l-17.117,0.02C213.385,254.894,216.482,218.285,184.69,193.625z
				 M255.964,305.621h-45.148v-45.04h45.148V305.621z M277.253,191.954c-25.891,22.051-25.451,62.891-25.451,62.891l-17.938,0.02
				v0.244h-0.459l0.039-0.244h0.42v-20.605c2.003-19.745,10.395-49.984,41.406-70.414c0.596-0.352,15.613-9.78,20.84-31.841
				c5.364-22.55-2.462-45.998-21.26-76.393c24.787,14.059,36.736,39.198,36.736,69.739
				C311.566,152.825,300.652,176.156,277.253,191.954z"/>
		</g>
	</g>
</g>
<g>
</g>
<g>
</g>
<g>
</g>
<g>
</g>
<g>
</g>
<g>
</g>
<g>
</g>
<g>
</g>
<g>
</g>
<g>
</g>
<g>
</g>
<g>
</g>
<g>
</g>
<g>
</g>
<g>
</g>
</svg>
