<?xml version="1.0" encoding="iso-8859-1"?>
<!-- Generator: Adobe Illustrator 19.1.0, SVG Export Plug-In . SVG Version: 6.00 Build 0)  -->
<svg version="1.1" id="Capa_1" xmlns="http://www.w3.org/2000/svg" xmlns:xlink="http://www.w3.org/1999/xlink" x="0px" y="0px"
	 viewBox="0 0 436.277 436.277" style="enable-background:new 0 0 436.277 436.277;" xml:space="preserve">
<g>
	<g>
		<g>
			<path style="fill:#010002;" d="M48.997,0v338.272h106.417l62.715,98.004l62.734-98.004H387.28V0H48.997z M190.743,66.007
				c7.552,0,13.688,8.969,13.688,20.029c0,11.04-6.126,20.019-13.688,20.019c-7.552,0-13.688-8.979-13.688-20.019
				C177.055,74.966,183.181,66.007,190.743,66.007z M161.726,75.846c5.305-0.752,10.522,4.924,11.627,12.721
				c1.124,7.777-2.286,14.704-7.611,15.447c-5.325,0.772-10.522-4.934-11.626-12.711C152.981,83.525,156.401,76.598,161.726,75.846z
				 M140.387,85.186c4.485-1.065,9.34,3.39,10.894,9.926c1.534,6.536-0.86,12.701-5.305,13.756c-4.504,1.055-9.36-3.41-10.894-9.946
				C133.529,92.416,135.923,86.231,140.387,85.186z M120.105,96.832c3.791-1.505,8.627,1.759,10.796,7.298
				c2.218,5.52,0.938,11.206-2.872,12.691c-3.791,1.505-8.608-1.759-10.796-7.279C115.053,104.003,116.333,98.327,120.105,96.832z
				 M104.56,121.033c-1.72-4.357-0.713-8.842,2.267-10.014c2.98-1.172,6.79,1.397,8.51,5.755c1.729,4.357,0.694,8.832-2.267,10.014
				C110.09,127.95,106.28,125.39,104.56,121.033z M188.916,311.062c-18.905,3.039-37.215-13.278-40.917-36.433
				c-1.72-10.63-3.39-32.251-5.549-41.719l-16.258-45.695c-0.928-4.045-11.626-23.263-13.307-31.646
				c-3.449-17.029,7.552-33.619,24.572-37.058l29.731-6.009c4.465-0.918,17.733-1.778,17.733-1.778
				c18.221,0,26.995,9.438,26.995,27.669c0,10.571-11.275,25.686-18.69,26.839c-7.445,1.153-6.732-1.563-11.793-1.563
				c-7.249,0-14.323,6.214-14.323,13.454v0.616l0.195,5.207c0.195,3.224-0.606,18.182,8.666,37.146
				c9.262,18.974,30.375,14.118,35.954,49.994C213.468,297.247,207.802,308.024,188.916,311.062z M318.273,64.727
				c2.159-5.54,6.986-8.822,10.776-7.298c3.791,1.475,5.071,7.171,2.872,12.691c-2.159,5.53-7.025,8.793-10.796,7.298
				C317.354,75.924,316.045,70.228,318.273,64.727z M297.873,55.709c1.563-6.556,6.409-11.001,10.894-9.946
				c4.465,1.045,6.839,7.21,5.305,13.747c-1.544,6.546-6.39,11.001-10.894,9.936C298.713,68.42,296.339,62.246,297.873,55.709z
				 M275.792,49.144c1.124-7.797,6.341-13.473,11.646-12.721c5.305,0.752,8.695,7.689,7.601,15.447
				c-1.094,7.777-6.302,13.483-11.617,12.721C278.078,63.848,274.688,56.921,275.792,49.144z M258.431,26.585
				c7.572,0,13.698,8.969,13.698,20.029c0,11.05-6.106,20.029-13.698,20.029c-7.543,0-13.678-8.979-13.678-20.029
				C244.733,35.554,250.859,26.585,258.431,26.585z M336.309,116.167c-1.7,8.383-12.398,27.62-13.327,31.655l-16.238,45.695
				c-2.179,9.458-3.859,31.089-5.54,41.728c-3.713,23.126-22.032,39.423-40.937,36.433c-18.886-3.058-24.572-13.835-22.999-40.986
				c5.628-35.886,26.712-31.02,35.974-49.984c9.272-18.974,8.451-33.922,8.647-37.136l0.205-5.208v-0.635
				c0-7.24-7.054-13.444-14.304-13.444c-5.081,0-4.357,2.697-11.793,1.544c-7.464-1.133-18.72-16.258-18.72-26.829
				c0-18.221,8.793-27.669,27.014-27.669c0,0,13.248,0.87,17.733,1.788l29.692,6.018C328.727,82.548,339.738,99.148,336.309,116.167
				z M344.603,81.61c-1.729,4.357-5.53,6.917-8.51,5.735c-2.99-1.163-3.986-5.657-2.267-10.005c1.729-4.357,5.53-6.937,8.51-5.745
				C345.317,72.778,346.323,77.262,344.603,81.61z"/>
		</g>
	</g>
</g>
<g>
</g>
<g>
</g>
<g>
</g>
<g>
</g>
<g>
</g>
<g>
</g>
<g>
</g>
<g>
</g>
<g>
</g>
<g>
</g>
<g>
</g>
<g>
</g>
<g>
</g>
<g>
</g>
<g>
</g>
</svg>
