<?xml version="1.0" encoding="iso-8859-1"?>
<!-- Generator: Adobe Illustrator 19.1.0, SVG Export Plug-In . SVG Version: 6.00 Build 0)  -->
<svg version="1.1" id="Capa_1" xmlns="http://www.w3.org/2000/svg" xmlns:xlink="http://www.w3.org/1999/xlink" x="0px" y="0px"
	 viewBox="0 0 410.933 410.933" style="enable-background:new 0 0 410.933 410.933;" xml:space="preserve">
<g>
	<g>
		<g>
			<path style="fill:#010002;" d="M46.452,203.571l-0.508-0.586l0.508-0.41V203.571z M365.018,0v318.615H264.806l-59.07,92.318
				l-59.07-92.318H46.423V203.561c2.443,2.843,17.078,18.72,38.788,19.794c15.3,0.762,30.121-6.038,44.298-20.205
				c13.014-13.014,26.751-19.462,40.908-18.935c21.26,0.645,36.794,16.727,38.563,18.641c2.491,2.892,21.123,22.002,29.955,22.52
				c1.798,0.264,3.605,0.42,5.462,0.42c13.493,0,27.894-7.601,42.969-22.647c16.033-16.013,30.981-23.087,44.503-20.977
				c17.459,2.726,26.692,20.234,26.78,20.41l4.025-2.081c-0.401-0.811-10.317-19.706-30.092-22.804
				c-15.026-2.374-31.323,5.12-48.421,22.237c-16.033,16.013-31.001,23.077-44.513,20.977c-8.578-1.641-26.79-20.4-26.79-20.4
				l-0.313-0.459c-0.703-0.801-17.489-19.589-41.934-20.371c-15.398-0.508-30.366,6.312-44.298,20.254
				c-13.229,13.219-26.975,19.579-40.839,18.896c-21.289-1.016-35.915-18.554-36.071-18.729l-2.98,2.462v-22.882
				c2.413,2.775,16.17,17.635,36.707,19.599l2.081,0.205c15.3,0.762,30.121-6.048,44.298-20.234
				c13.014-12.994,26.751-19.452,40.908-18.935c21.26,0.664,38.563,18.651,38.563,18.651s11.509,13.639,22.774,20.596
				c2.237,0.85,4.602,1.534,7.191,1.934l0.498,0.029c1.641,0.244,3.283,0.391,4.963,0.391c10.952,0,22.54-5.12,34.596-15.066
				c2.765-2.296,5.559-4.778,8.383-7.611c16.023-16.013,30.981-23.067,44.493-20.986c17.479,2.736,26.702,20.254,26.79,20.41
				l4.025-2.062c-0.401-0.811-10.317-19.706-30.092-22.804c-15.017-2.374-31.313,5.129-48.411,22.247
				c-3.605,3.595-7.328,6.878-10.62,9.331c-3.253,2.491-5.159-1.358-5.159-1.358l-0.166,0.039l0.166-0.088l-35.417-62.031
				l-7.122-12.525l-25.168-44.073c-3.547-6.224-11.46-8.383-17.694-4.846c-6.233,3.556-8.373,11.48-4.846,17.694l27.835,48.782
				l-7.132,6.312l-42.53,24.24l-26.096,14.89c0,0-30.18,20.156-38.758,22.11c-4.191,0.518-4.191,0.518-5.989,0.43
				c-17.264-0.83-34.879-16.727-39.032-21.045v5.745l-0.508-0.576l-0.039-5.764c0,0,0.518,0.557,0.537,0.576V0H365.018z
				 M304.443,115.884c-7.66-13.385-24.758-18.085-38.192-10.425c-13.405,7.67-18.114,24.787-10.464,38.201
				c7.67,13.434,24.806,18.094,38.221,10.435C307.433,146.435,312.103,129.318,304.443,115.884z"/>
		</g>
	</g>
</g>
<g>
</g>
<g>
</g>
<g>
</g>
<g>
</g>
<g>
</g>
<g>
</g>
<g>
</g>
<g>
</g>
<g>
</g>
<g>
</g>
<g>
</g>
<g>
</g>
<g>
</g>
<g>
</g>
<g>
</g>
</svg>
