<?xml version="1.0" encoding="iso-8859-1"?>
<!-- Generator: Adobe Illustrator 19.1.0, SVG Export Plug-In . SVG Version: 6.00 Build 0)  -->
<svg version="1.1" id="Capa_1" xmlns="http://www.w3.org/2000/svg" xmlns:xlink="http://www.w3.org/1999/xlink" x="0px" y="0px"
	 viewBox="0 0 406.38 406.38" style="enable-background:new 0 0 406.38 406.38;" xml:space="preserve">
<g>
	<g>
		<g>
			<path style="fill:#010002;" d="M196.605,286.676H45.646v28.402h99.128l58.416,91.302l58.426-91.302h99.118v-28.402H246.013
				C246.013,286.676,196.605,286.676,196.605,286.676z M45.646,0v272.099h156.88l1.817-5.481c2.149-7.367,6.859-31.9,7.875-39.638
				c2.062-15.466,1.759-31.421-1.534-47.131c-3.234-15.691-9.467-31.089-18.436-45.285c-5.11-8.119-11.177-15.759-17.85-22.999
				c-4.514,2.912-10.767,7.191-13.072,8.959c-6.302,4.836-11.939,10.679-16.414,17.498c-4.484,6.82-7.767,14.597-9.653,22.94
				c-1.905,8.334-2.355,17.186-1.7,26.047c-2.697-8.461-4.436-17.42-4.533-26.663c-0.156-9.233,1.358-18.729,4.602-27.806
				c3.234-9.076,8.217-17.664,14.382-25.324l1.026-1.172c-4.133-0.83-8.344-1.563-10.337-1.837
				c-7.875-1.036-15.984-0.889-23.976,0.772c-7.972,1.641-15.798,4.826-23.028,9.389c-7.249,4.553-13.815,10.493-19.628,17.225
				c4.084-7.894,9.184-15.447,15.642-22.081c6.429-6.624,14.196-12.281,22.921-16.385c8.695-4.123,18.29-6.702,28.07-7.748
				c4.895-0.518,9.829-0.664,14.831-0.459c2.491,0.107,4.983,0.313,7.503,0.616l2.374,0.361l1.094-3.078
				c0.899-2.374,1.895-4.68,2.941-6.937c2.149-4.504,4.563-8.822,7.308-12.916c5.481-8.168,12.203-15.447,19.912-21.24
				c7.689-5.813,16.316-10.053,25.158-12.662c8.862-2.638,17.938-3.644,26.819-3.586c-8.666,2.013-16.961,5.071-24.367,9.36
				c-7.396,4.279-13.864,9.741-19.032,16.033c-5.168,6.302-9.096,13.414-11.851,20.869c-0.469,1.27-1.221,3.576-2.013,6.165
				c3.732-1.055,7.484-1.964,11.275-2.57c9.712-1.563,19.628-1.622,29.105,0.068c9.506,1.671,18.505,5.08,26.448,9.77
				c7.972,4.69,14.88,10.63,20.908,17.166c-7.376-4.963-15.29-8.959-23.478-11.431c-8.158-2.511-16.541-3.507-24.67-2.99
				c-8.168,0.498-16.033,2.491-23.37,5.569c-3.166,1.329-12.056,5.676-16.58,8.139c14.372,17.352,37.859,55.035,44.982,70.16
				c8.099,17.117,13.16,35.954,15.232,55.182c1.016,9.614,1.299,19.335,0.899,29.115c-0.225,4.905-0.616,9.829-1.241,14.772
				l-0.166,1.221h112.005V0H45.646z M317.325,109.191c-14.772,0-26.731-11.959-26.731-26.712s11.968-26.702,26.731-26.702
				c14.733,0,26.692,11.959,26.692,26.702S332.049,109.191,317.325,109.191z"/>
		</g>
	</g>
</g>
<g>
</g>
<g>
</g>
<g>
</g>
<g>
</g>
<g>
</g>
<g>
</g>
<g>
</g>
<g>
</g>
<g>
</g>
<g>
</g>
<g>
</g>
<g>
</g>
<g>
</g>
<g>
</g>
<g>
</g>
</svg>
