<?xml version="1.0" encoding="iso-8859-1"?>
<!-- Generator: Adobe Illustrator 19.1.0, SVG Export Plug-In . SVG Version: 6.00 Build 0)  -->
<svg version="1.1" id="Capa_1" xmlns="http://www.w3.org/2000/svg" xmlns:xlink="http://www.w3.org/1999/xlink" x="0px" y="0px"
	 viewBox="0 0 249.149 249.149" style="enable-background:new 0 0 249.149 249.149;" xml:space="preserve">
<g>
	<g>
		<g>
			<path style="fill:#010002;" d="M50.658,138.165C22.677,138.165,0,160.832,0,188.823s22.677,50.658,50.658,50.658
				s50.668-22.667,50.668-50.658S78.64,138.165,50.658,138.165z M50.658,230.297c-22.862,0-41.445-18.622-41.445-41.465
				s18.593-41.435,41.445-41.435S92.113,166,92.113,188.833C92.113,211.685,73.52,230.297,50.658,230.297z M198.471,138.165
				c-27.972,0-50.658,22.667-50.658,50.658s22.677,50.658,50.658,50.658s50.678-22.667,50.678-50.658
				S226.463,138.165,198.471,138.165z M198.471,230.297c-22.843,0-41.425-18.622-41.425-41.465s18.583-41.435,41.425-41.435
				c22.862,0,41.465,18.602,41.465,41.435C239.945,211.685,221.333,230.297,198.471,230.297z M140.847,58.45
				c13.473,0,24.386-10.894,24.386-24.396c0-13.463-10.913-24.386-24.386-24.386c-13.483,0-24.406,10.923-24.406,24.386
				C116.441,47.547,127.364,58.45,140.847,58.45z M119.763,168.286v41.787h23.106v-57.107h-0.039l0.039-0.029l-40.556-31.284
				l21.172-29.418l60.341,30.346l8.588-17.117l-57.605-28.969l6.048-8.383L115.62,49.94l-53.795,74.771l22.129,15.935
				L119.763,168.286z M146.201,211.861h-22.862c-3.81,0-6.908,3.097-6.908,6.888c0,3.84,3.097,6.927,6.908,6.927h22.862
				c3.81,0,6.908-3.087,6.908-6.927C153.108,214.968,150.011,211.861,146.201,211.861z"/>
		</g>
	</g>
</g>
<g>
</g>
<g>
</g>
<g>
</g>
<g>
</g>
<g>
</g>
<g>
</g>
<g>
</g>
<g>
</g>
<g>
</g>
<g>
</g>
<g>
</g>
<g>
</g>
<g>
</g>
<g>
</g>
<g>
</g>
</svg>
