<?xml version="1.0" encoding="iso-8859-1"?>
<!-- Generator: Adobe Illustrator 19.1.0, SVG Export Plug-In . SVG Version: 6.00 Build 0)  -->
<svg version="1.1" id="Capa_1" xmlns="http://www.w3.org/2000/svg" xmlns:xlink="http://www.w3.org/1999/xlink" x="0px" y="0px"
	 viewBox="0 0 407.455 407.455" style="enable-background:new 0 0 407.455 407.455;" xml:space="preserve">
<g>
	<g>
		<g>
			<path style="fill:#010002;" d="M45.783,0v315.908h99.372l58.572,91.546l58.562-91.546h99.382V0H45.783z M219.887,42.666
				c13.356,0,24.22,10.845,24.22,24.21s-10.855,24.22-24.22,24.22c-13.375,0-24.23-10.855-24.23-24.22
				S206.492,42.666,219.887,42.666z M194.837,82.665l25.051,18.026l-5.989,8.334l57.175,28.783l-8.549,16.971l-59.852-30.141
				l-21.016,29.203l40.243,31.05l-0.039,0.029h0.039v56.686h-22.931v-41.474l-35.544-27.415l-21.973-15.818L194.837,82.665z
				 M130.373,270.751c-27.777,0-50.277-22.51-50.277-50.277c0-27.786,22.501-50.277,50.277-50.277
				c27.767,0,50.277,22.491,50.277,50.277C180.65,248.24,158.14,270.751,130.373,270.751z M225.193,257.033h-22.677
				c-3.771,0-6.859-3.078-6.859-6.859c0-3.781,3.078-6.849,6.859-6.849h22.677c3.781,0,6.849,3.068,6.849,6.849
				C232.041,253.966,228.974,257.033,225.193,257.033z M277.082,270.751c-27.767,0-50.277-22.51-50.277-50.277
				c0-27.786,22.51-50.277,50.277-50.277c27.767,0,50.277,22.491,50.277,50.277C327.359,248.24,304.849,270.751,277.082,270.751z
				 M318.204,220.474c0,22.686-18.446,41.123-41.123,41.123c-22.686,0-41.123-18.446-41.123-41.123s18.456-41.123,41.123-41.123
				C299.758,179.341,318.224,197.787,318.204,220.474z M171.505,220.474c0,22.686-18.446,41.123-41.123,41.123
				S89.25,243.15,89.25,220.474s18.466-41.123,41.132-41.123C153.069,179.341,171.515,197.787,171.505,220.474z"/>
		</g>
	</g>
</g>
<g>
</g>
<g>
</g>
<g>
</g>
<g>
</g>
<g>
</g>
<g>
</g>
<g>
</g>
<g>
</g>
<g>
</g>
<g>
</g>
<g>
</g>
<g>
</g>
<g>
</g>
<g>
</g>
<g>
</g>
</svg>
