<?xml version="1.0" encoding="iso-8859-1"?>
<!-- Generator: Adobe Illustrator 19.1.0, SVG Export Plug-In . SVG Version: 6.00 Build 0)  -->
<svg version="1.1" id="Capa_1" xmlns="http://www.w3.org/2000/svg" xmlns:xlink="http://www.w3.org/1999/xlink" x="0px" y="0px"
	 viewBox="0 0 465.959 465.959" style="enable-background:new 0 0 465.959 465.959;" xml:space="preserve">
<g>
	<g>
		<g>
			<g>
				<path style="fill:#010002;" d="M242.383,204.587h33.385v33.385h-33.385V204.587z M242.383,147.51h33.385v33.404h-33.385V147.51z
					 M190.152,147.51h33.394v33.404h-33.394V147.51z M242.647,89.944h33.394v33.385h-33.394V89.944z M190.445,89.944h33.385v33.385
					h-33.385V89.944z M52.334,0v361.291H166.01l66.965,104.668l66.974-104.668h113.676V0H52.334z M325.586,303.139H140.373v-23.683
					h62.461v-2.706h-25.852V71.615h100.164V54.4H176.972V40.917h112.015v235.842h-24.767v2.697h61.366V303.139L325.586,303.139z
					 M190.152,204.587h33.394v33.385h-33.394V204.587z M202.814,255.783h61.396v20.977h-61.396V255.783z"/>
			</g>
		</g>
	</g>
</g>
<g>
</g>
<g>
</g>
<g>
</g>
<g>
</g>
<g>
</g>
<g>
</g>
<g>
</g>
<g>
</g>
<g>
</g>
<g>
</g>
<g>
</g>
<g>
</g>
<g>
</g>
<g>
</g>
<g>
</g>
</svg>
