<?xml version="1.0" encoding="iso-8859-1"?>
<!-- Generator: Adobe Illustrator 19.1.0, SVG Export Plug-In . SVG Version: 6.00 Build 0)  -->
<svg version="1.1" id="Capa_1" xmlns="http://www.w3.org/2000/svg" xmlns:xlink="http://www.w3.org/1999/xlink" x="0px" y="0px"
	 viewBox="0 0 465.959 465.959" style="enable-background:new 0 0 465.959 465.959;" xml:space="preserve">
<g>
	<g>
		<g>
			<g>
				<path style="fill:#010002;" d="M224.328,71.127c-17.743,29.066-102.255,164.93-139.811,179.146l9.956,22.901L225.363,86.857
					l153.323,193.254l3.869-23.136C338.873,225.046,244.347,98.307,224.328,71.127z M229.418,204.255
					c-27.698,0-50.14,22.452-50.14,50.14c0,7.22,1.661,14.02,4.416,20.214h91.458c2.745-6.204,4.406-12.994,4.406-20.214
					C279.559,226.707,257.126,204.255,229.418,204.255z M52.344,0v361.271H166l66.974,104.687l66.974-104.687h113.666V0H52.344z
					 M393.488,254.425l-0.479,0.87l-4.758,28.402l-7.767-1.319l1.026,1.309h-97.878v-9.077h-8.49
					c-1.426,3.185-3.039,6.272-5.061,9.077h-81.346c-2.022-2.804-3.635-5.891-5.051-9.077h-11.197v9.077H96.515l-7.074,3.058
					l-1.339-3.058h-1.016l0.635-0.909l-18.368-42.256l9.174-4.006l2.736,6.292c31.196-10.415,110.882-133.91,139.235-181.1
					l3.156-5.247l3.615,4.953c1.163,1.583,108.595,148.448,156.772,186.532l2.618-15.652l9.907,1.661l-3.4,20.283L393.488,254.425z
					 M378.364,282.035l2.12,0.342l-1.798-2.257L378.364,282.035z M94.473,273.184l-6.741,9.594l0.391,0.909h8.402l2.11-0.928
					L94.473,273.184z M382.556,256.985c2.511,1.837,4.885,3.42,7.035,4.602l3.439-6.292l0.195-1.055
					c-2.726-1.495-5.794-3.644-9.135-6.282L382.556,256.985z M82.533,251.005l1.983-0.733l-3.244-7.464l-0.889,0.332L82.533,251.005
					z"/>
			</g>
		</g>
	</g>
</g>
<g>
</g>
<g>
</g>
<g>
</g>
<g>
</g>
<g>
</g>
<g>
</g>
<g>
</g>
<g>
</g>
<g>
</g>
<g>
</g>
<g>
</g>
<g>
</g>
<g>
</g>
<g>
</g>
<g>
</g>
</svg>
