<?xml version="1.0" encoding="iso-8859-1"?>
<!-- Generator: Adobe Illustrator 19.1.0, SVG Export Plug-In . SVG Version: 6.00 Build 0)  -->
<svg version="1.1" id="Capa_1" xmlns="http://www.w3.org/2000/svg" xmlns:xlink="http://www.w3.org/1999/xlink" x="0px" y="0px"
	 viewBox="0 0 434.469 434.469" style="enable-background:new 0 0 434.469 434.469;" xml:space="preserve">
<g>
	<g>
		<g>
			<path style="fill:#010002;" d="M259.329,233.321c-6.859,0-12.447,5.559-12.447,12.428c0,6.859,5.589,12.428,12.447,12.428
				c6.839,0,12.428-5.569,12.428-12.428C271.757,238.881,266.169,233.321,259.329,233.321z M48.802,0v336.865h105.977l62.441,97.604
				l62.451-97.604h105.996V0H48.802z M259.329,280.511c-19.208,0-34.762-15.574-34.762-34.752s15.564-34.733,34.762-34.733
				c19.169,0,34.743,15.564,34.743,34.733C294.072,264.938,278.499,280.511,259.329,280.511z M328.414,133.05v115.493h-22.696
				l0.147-2.804c0-25.705-20.82-46.545-46.535-46.545c-25.715,0-46.565,20.83-46.565,46.545l0.127,2.804H72.436v-19.54h15.388
				v-18.006H72.426v-5.374h33.179v5.374H92.377v18.006h70.697V107.101h165.34V133.05L328.414,133.05z M329.43,101.102H162.097
				V77.595c91.634-52.788,167.334,0,167.334,0S329.43,101.102,329.43,101.102z"/>
		</g>
	</g>
</g>
<g>
</g>
<g>
</g>
<g>
</g>
<g>
</g>
<g>
</g>
<g>
</g>
<g>
</g>
<g>
</g>
<g>
</g>
<g>
</g>
<g>
</g>
<g>
</g>
<g>
</g>
<g>
</g>
<g>
</g>
</svg>
