<?xml version="1.0" encoding="iso-8859-1"?>
<!-- Generator: Adobe Illustrator 19.1.0, SVG Export Plug-In . SVG Version: 6.00 Build 0)  -->
<svg version="1.1" id="Capa_1" xmlns="http://www.w3.org/2000/svg" xmlns:xlink="http://www.w3.org/1999/xlink" x="0px" y="0px"
	 viewBox="0 0 241.772 241.772" style="enable-background:new 0 0 241.772 241.772;" xml:space="preserve">
<g>
	<g>
		<g>
			<g>
				<path style="fill:#010002;" d="M216.145,126.001l-78.523,43.389c-2.785-1.954-5.93-3.38-9.252-4.338L52.612,34.269L0,56.467
					l3.166,7.533l45.969-19.501l69.114,119.333c-16.619,0.762-29.975,14.44-29.975,31.284c0,17.362,14.079,31.411,31.411,31.411
					c17.342,0,31.431-14.049,31.431-31.411c0-7.591-2.804-14.489-7.308-19.892l72.28-39.921l21.66,12.418l4.025-7.074
					L216.145,126.001z M119.685,210.298c-8.412,0-15.212-6.78-15.212-15.183c0-8.402,6.79-15.212,15.212-15.212
					c8.393,0,15.212,6.8,15.212,15.212C134.897,203.517,128.077,210.298,119.685,210.298z M136.763,153.865l72.876-41.23
					L168.457,39.73l-72.895,41.22L136.763,153.865z M118.385,51.161l-16.482-29.154L72.797,38.49L89.25,67.556L118.385,51.161z
					 M149.259,34.132L138.6,15.246l-18.915,10.669l10.689,18.935L149.259,34.132z"/>
			</g>
		</g>
	</g>
</g>
<g>
</g>
<g>
</g>
<g>
</g>
<g>
</g>
<g>
</g>
<g>
</g>
<g>
</g>
<g>
</g>
<g>
</g>
<g>
</g>
<g>
</g>
<g>
</g>
<g>
</g>
<g>
</g>
<g>
</g>
</svg>
