<?xml version="1.0" encoding="iso-8859-1"?>
<!-- Generator: Adobe Illustrator 19.1.0, SVG Export Plug-In . SVG Version: 6.00 Build 0)  -->
<svg version="1.1" id="Capa_1" xmlns="http://www.w3.org/2000/svg" xmlns:xlink="http://www.w3.org/1999/xlink" x="0px" y="0px"
	 viewBox="0 0 419.013 419.013" style="enable-background:new 0 0 419.013 419.013;" xml:space="preserve">
<g>
	<g>
		<g>
			<path style="fill:#010002;" d="M47.078,0v324.877h102.215l60.214,94.136l60.243-94.136h102.186V0H47.078z M249.906,184.207
				l-8.451-19.521l-3.879-1.915v1.739H178.75v-0.313l-4.621,2.179l4.621-10.718v8.539l31.47-14.831l27.356,13.395v-7.103
				l-9.409-21.758h-40.038l-9.389,21.748v-32.31h-5.53l30.551-43.643v4.055h8.783v-5.813l-3.703-5.501l-5.08,7.249V49.886h-13.072
				v-8.783h13.072V27.415h8.783v13.688h13.092v8.783h-13.092v28.05l30.551,45.392h-5.53v32.329l3.889,9.018l72.67,35.593h-64.229
				v6.145H166.43v-6.145h-64.249l71.908-33.883l-7.679,17.811L249.906,184.207L249.906,184.207z M328.966,268.552L328.966,268.552
				H90.076v-10.259h14.802v-51.87h61.532v51.87h29.066v-47.063h25.324v47.063h29.086v-51.87h64.229v51.87h14.831L328.966,268.552
				L328.966,268.552z M212.535,49.886h-8.783v-8.783h8.783V49.886z M166.41,191.095h83.467v9.174H166.41V191.095z"/>
		</g>
	</g>
</g>
<g>
</g>
<g>
</g>
<g>
</g>
<g>
</g>
<g>
</g>
<g>
</g>
<g>
</g>
<g>
</g>
<g>
</g>
<g>
</g>
<g>
</g>
<g>
</g>
<g>
</g>
<g>
</g>
<g>
</g>
</svg>
