<?xml version="1.0" encoding="iso-8859-1"?>
<!-- Generator: Adobe Illustrator 19.1.0, SVG Export Plug-In . SVG Version: 6.00 Build 0)  -->
<svg version="1.1" id="Capa_1" xmlns="http://www.w3.org/2000/svg" xmlns:xlink="http://www.w3.org/1999/xlink" x="0px" y="0px"
	 viewBox="0 0 209.033 209.033" style="enable-background:new 0 0 209.033 209.033;" xml:space="preserve">
<g>
	<g>
		<g>
			<polygon style="fill:#010002;" points="195.1,195.325 195.237,155.424 139.743,155.424 139.743,146.25 193.322,146.25 
				134.017,117.965 129.953,108.351 130.09,85.235 135.043,85.254 108.117,46.33 108.263,19.941 119.86,20.009 119.919,12.213 
				108.302,12.135 108.371,0 100.662,0 100.74,12.135 89.133,12.213 89.182,20.009 100.779,19.941 100.926,46.33 73.98,85.254 
				78.943,85.235 79.08,108.351 75.006,117.965 15.72,146.25 69.29,146.25 69.29,155.424 13.795,155.424 13.932,195.325 
				0.879,195.325 0.879,209.033 104.521,209.033 208.153,209.033 208.153,195.325 			"/>
		</g>
	</g>
</g>
<g>
</g>
<g>
</g>
<g>
</g>
<g>
</g>
<g>
</g>
<g>
</g>
<g>
</g>
<g>
</g>
<g>
</g>
<g>
</g>
<g>
</g>
<g>
</g>
<g>
</g>
<g>
</g>
<g>
</g>
</svg>
