<?xml version="1.0" encoding="iso-8859-1"?>
<!-- Generator: Adobe Illustrator 19.1.0, SVG Export Plug-In . SVG Version: 6.00 Build 0)  -->
<svg version="1.1" id="Capa_1" xmlns="http://www.w3.org/2000/svg" xmlns:xlink="http://www.w3.org/1999/xlink" x="0px" y="0px"
	 viewBox="0 0 417.919 417.919" style="enable-background:new 0 0 417.919 417.919;" xml:space="preserve">
<g>
	<g>
		<g>
			<path style="fill:#010002;" d="M46.946,0v324.037h101.942l60.067,93.882l60.067-93.882h101.952V0H46.946z M306.754,291.532
				h-198.51V168.76c0-25.412,20.615-46.027,46.037-46.027h0.957c2.931,0,5.774,0.342,8.549,0.86
				c4.563-19.198,21.113-33.57,41.328-35.055V63.985h-23.742v-7.67h23.742V39.286h7.67v17.029h23.751v7.67h-23.751v24.552
				c20.117,1.475,36.579,15.72,41.24,34.782c1.895-0.244,3.781-0.576,5.755-0.576h0.957c25.422,0,46.027,20.615,46.027,46.027
				v122.762H306.754z"/>
		</g>
	</g>
</g>
<g>
</g>
<g>
</g>
<g>
</g>
<g>
</g>
<g>
</g>
<g>
</g>
<g>
</g>
<g>
</g>
<g>
</g>
<g>
</g>
<g>
</g>
<g>
</g>
<g>
</g>
<g>
</g>
<g>
</g>
</svg>
