<?xml version="1.0" encoding="iso-8859-1"?>
<!-- Generator: Adobe Illustrator 19.1.0, SVG Export Plug-In . SVG Version: 6.00 Build 0)  -->
<svg version="1.1" id="Capa_1" xmlns="http://www.w3.org/2000/svg" xmlns:xlink="http://www.w3.org/1999/xlink" x="0px" y="0px"
	 viewBox="0 0 443.145 443.145" style="enable-background:new 0 0 443.145 443.145;" xml:space="preserve">
<g>
	<g>
		<g>
			<path style="fill:#010002;" d="M220.405,160.27l32.769-58.836l6.38-0.01l-32.779,58.846H220.405z M223.668,165.868l1.055-1.905
				h-4.465L223.668,165.868z M263.951,82.118H156.967l12.897,19.364l83.31-0.049L263.951,82.118z M272.06,101.414l12.858-19.296
				h-14.606l-10.757,19.306L272.06,101.414z M226.785,160.27l-2.052,3.693h5.94l44.943-62.539h-3.547l-39.188,58.855L226.785,160.27
				L226.785,160.27L226.785,160.27z M270.311,82.118l6.214-11.158h-6.38l-6.204,11.158H270.311z M223.668,165.868h-14.733v5.579
				h24.035v-5.579H223.668z M393.357,0v343.597H285.259l-63.692,99.548l-63.692-99.548H49.789V0H393.357z M271.317,301.243
				c0-2.775-16.345-5.1-38.348-5.735v5.725h-24.035v-5.725c-22.012,0.625-38.367,2.941-38.367,5.735
				c0,3.244,22.55,5.901,50.375,5.901C248.778,307.154,271.317,304.497,271.317,301.243z M305.767,70.961h-29.232l12.086-21.7
				l2.198,0.449c6.526,0,11.773-5.276,11.773-11.793s-5.266-11.783-11.773-11.783c-6.526,0-11.812,5.266-11.812,11.783
				c0,3.703,1.817,6.888,4.504,9.037l-13.366,24.005H136.128l66.906,100.486h5.901v124.062c3.859-0.117,7.875-0.176,12.017-0.176
				c4.152,0,8.168,0.059,12.027,0.176V171.437h5.891L305.767,70.961z M220.405,160.27h-11.392l-39.149-58.787l-3.586,0.01
				l45.412,62.47h8.568l-1.456-0.811L220.405,160.27z M197.699,112.963c-1.886,0-3.42,1.534-3.42,3.42c0,1.886,1.534,3.42,3.42,3.42
				c1.886,0,3.42-1.534,3.42-3.42C201.119,114.497,199.585,112.963,197.699,112.963z M219.555,123.231
				c0-3.42,2.794-6.204,6.185-6.204c3.429,0,6.224,2.784,6.224,6.204c0,3.42-2.794,6.204-6.224,6.204
				C222.34,129.435,219.555,126.651,219.555,123.231z M222.34,123.221c0,1.895,1.524,3.429,3.39,3.429
				c1.905,0,3.429-1.534,3.429-3.429c0-1.876-1.524-3.42-3.429-3.42C223.854,119.802,222.34,121.345,222.34,123.221z"/>
		</g>
	</g>
</g>
<g>
</g>
<g>
</g>
<g>
</g>
<g>
</g>
<g>
</g>
<g>
</g>
<g>
</g>
<g>
</g>
<g>
</g>
<g>
</g>
<g>
</g>
<g>
</g>
<g>
</g>
<g>
</g>
<g>
</g>
</svg>
