<?xml version="1.0" encoding="iso-8859-1"?>
<!-- Generator: Adobe Illustrator 19.1.0, SVG Export Plug-In . SVG Version: 6.00 Build 0)  -->
<svg version="1.1" id="Capa_1" xmlns="http://www.w3.org/2000/svg" xmlns:xlink="http://www.w3.org/1999/xlink" x="0px" y="0px"
	 viewBox="0 0 420.299 420.299" style="enable-background:new 0 0 420.299 420.299;" xml:space="preserve">
<g>
	<g>
		<g>
			<g>
				<path style="fill:#010002;" d="M331.849,139.1c-2.9,0-6.1,0.2-9.6,0.4c-3.1,0.2-6.301,0.3-9.6,0.4
					c-1.6,21-9.701,40.2-22.201,55.6c6.301,1,13.9,1.2,22.602,1.2c19.799,0,33.699-23.3,33.699-44.3
					C346.749,141,342.149,139.1,331.849,139.1z"/>
				<path style="fill:#010002;" d="M47.249,0v325.9h102.5l60.4,94.399L270.55,325.9h102.5V0H47.249z M222.448,75.2
					c13.101-15.8,0.701-28.8,0.201-29.3l3.5-3.5c0.199,0.2,16.199,16.6,0.199,35.9c-13.1,15.8-0.699,28.8-0.199,29.3l-3.5,3.5
					C222.448,110.9,206.449,94.5,222.448,75.2z M201.749,75.2c13.1-15.8,0.7-28.8,0.1-29.3l3.5-3.5c0.2,0.2,16.099,16.6,0.2,35.9
					c-13.1,15.8-0.7,28.8-0.2,29.3l-3.5,3.5C201.649,110.9,185.649,94.5,201.749,75.2z M182.649,75.2c13.1-15.8,0.7-28.8,0.2-29.3
					l3.5-3.5c0.2,0.2,16.2,16.6,0.2,35.9c-13.1,15.8-0.7,28.8-0.2,29.3l-3.5,3.5C182.549,110.9,166.649,94.5,182.649,75.2z
					 M312.55,206.6c-10,0-21,0-30.301-2.3c-8,8.299-17.301,15.4-27.6,20.9c35.299,2.3,59.4,6.8,59.4,12.101
					c0,7.6-50,13.699-111.701,13.699c-61.7,0-111.7-6.1-111.7-13.699c0-5.201,24-9.801,59.1-12.101c-34.3-18.5-57.7-54.6-57.7-96.1
					c0,0,237.399,0,240.8,0c11.701,0,23.701,2.6,23.701,22C356.55,177.9,338.948,206.6,312.55,206.6z"/>
				<path style="fill:#010002;" d="M157.949,229.1L157.949,229.1L157.949,229.1L157.949,229.1z"/>
				<path style="fill:#010002;" d="M202.349,238.4c-15.8,0-30.8-3.4-44.4-9.301l0,0c-27,1.601-45.3,4.701-45.3,8.201
					c0,5.199,40.2,9.399,89.7,9.399s89.701-4.2,89.701-9.399c0-3.5-18.301-6.5-45.301-8.201
					C233.249,235.1,218.249,238.4,202.349,238.4z"/>
			</g>
		</g>
	</g>
</g>
<g>
</g>
<g>
</g>
<g>
</g>
<g>
</g>
<g>
</g>
<g>
</g>
<g>
</g>
<g>
</g>
<g>
</g>
<g>
</g>
<g>
</g>
<g>
</g>
<g>
</g>
<g>
</g>
<g>
</g>
</svg>
