<?xml version="1.0" encoding="iso-8859-1"?>
<!-- Generator: Adobe Illustrator 19.1.0, SVG Export Plug-In . SVG Version: 6.00 Build 0)  -->
<svg version="1.1" id="Capa_1" xmlns="http://www.w3.org/2000/svg" xmlns:xlink="http://www.w3.org/1999/xlink" x="0px" y="0px"
	 viewBox="0 0 206.397 206.397" style="enable-background:new 0 0 206.397 206.397;" xml:space="preserve">
<g>
	<g>
		<g>
			<g>
				<path style="fill:#010002;" d="M193.329,171.577l-18.131,0.001l-23.854-64.999l-64.729-0.03l-0.863-15.285l45.181-0.023
					l-0.005-16.961H84.475l-2.249-34.514c-2.811,1.707-6.054,2.736-9.583,2.736c-2.648,0-5.127-0.563-7.405-1.535l5.468,82.257
					l68.95,0.054l24.91,63.83l28.771,0.01L193.329,171.577z"/>
				<path style="fill:#010002;" d="M64.914,35.334c2.271,0.98,4.771,1.544,7.397,1.544c3.521,0,6.78-1.033,9.59-2.736
					c5.328-3.216,8.928-9.046,8.928-15.702C90.82,8.278,82.527,0,72.304,0C62.088,0,53.81,8.278,53.81,18.44
					C53.809,25.998,58.381,32.481,64.914,35.334z"/>
				<path style="fill:#010002;" d="M93.43,188.073c-34.247,0-61.992-27.629-61.992-61.76c0-19.511,9.104-36.88,23.313-48.205
					l-11.775-14.1C24.728,78.684,13.06,101.131,13.06,126.313c0,44.237,35.969,80.084,80.37,80.084
					c21.319,0,40.71-8.286,55.08-21.814l-18.153-8.749C120.033,183.494,107.275,188.073,93.43,188.073z"/>
			</g>
		</g>
	</g>
</g>
<g>
</g>
<g>
</g>
<g>
</g>
<g>
</g>
<g>
</g>
<g>
</g>
<g>
</g>
<g>
</g>
<g>
</g>
<g>
</g>
<g>
</g>
<g>
</g>
<g>
</g>
<g>
</g>
<g>
</g>
</svg>
