<?xml version="1.0" encoding="iso-8859-1"?>
<!-- Generator: Adobe Illustrator 19.1.0, SVG Export Plug-In . SVG Version: 6.00 Build 0)  -->
<svg version="1.1" id="Capa_1" xmlns="http://www.w3.org/2000/svg" xmlns:xlink="http://www.w3.org/1999/xlink" x="0px" y="0px"
	 viewBox="0 0 257.434 257.434" style="enable-background:new 0 0 257.434 257.434;" xml:space="preserve">
<g>
	<g>
		<g>
			<path style="fill:#010002;" d="M63.086,23.194l7.758-3.283c11.353,26.751,49.076,63.213,50.766,63.76h76.471v8.422l-77.565-0.049
				C118.864,91.83,77.311,56.755,63.086,23.194z M225.505,79.588l15.114-22.286l-83.427-25.793L128.712,0l8.48,79.588H225.505z
				 M199.81,97.379h-68.743L41.67,177.436c-14.196-3.635-25.578-12.975-30.883-26.086l-0.068,0.449
				c-3.253-9.262-5.1-4.484-5.95-0.616c-0.342,2.208-0.557,4.543-0.557,6.839c0.107,20.429,14.352,37.586,33.609,42.832
				l28.431,56.579h98.044c0,0,2.843-4.993,5.256-11.148v-0.244c7.093-20.723-12.828-22.55-12.867-22.55h0.117
				c-14.294-0.059-21.299-0.205-21.299-0.205c0.86-12.428,4.504-16.697,7.806-17.997l39.081-18.016l26.37,70.15h44.464
				L199.81,97.379z"/>
		</g>
	</g>
</g>
<g>
</g>
<g>
</g>
<g>
</g>
<g>
</g>
<g>
</g>
<g>
</g>
<g>
</g>
<g>
</g>
<g>
</g>
<g>
</g>
<g>
</g>
<g>
</g>
<g>
</g>
<g>
</g>
<g>
</g>
</svg>
