<?xml version="1.0" encoding="iso-8859-1"?>
<!-- Generator: Adobe Illustrator 19.1.0, SVG Export Plug-In . SVG Version: 6.00 Build 0)  -->
<svg version="1.1" id="Capa_1" xmlns="http://www.w3.org/2000/svg" xmlns:xlink="http://www.w3.org/1999/xlink" x="0px" y="0px"
	 viewBox="0 0 426.341 426.341" style="enable-background:new 0 0 426.341 426.341;" xml:space="preserve">
<g>
	<g>
		<g>
			<path style="fill:#010002;" d="M47.898,0v330.554h103.984l61.288,95.787l61.269-95.787h104.003V0H47.898z M227.708,59.539
				l81.737,25.256l-14.772,21.827h-86.515l-8.324-77.956C199.824,28.675,227.708,59.539,227.708,59.539z M143.118,48.167
				c11.118,26.223,48.069,61.943,49.72,62.47h74.918v8.256l-75.992-0.039c-1.612-0.234-42.324-34.606-56.266-67.453
				C135.517,51.411,143.118,48.167,143.118,48.167z M278.21,280.863l-25.832-68.723l-38.27,17.664
				c-3.234,1.26-6.82,5.432-7.65,17.596c0,0,6.868,0.176,20.85,0.225h-0.127c0.059,0,19.579,1.759,12.633,22.081v0.264
				c-2.374,6.009-5.149,10.894-5.149,10.894h-96.05l-27.825-55.416c-18.886-5.129-32.847-21.963-32.955-41.963
				c-0.02-2.257,0.205-4.553,0.528-6.722c0.84-3.762,2.648-8.461,5.843,0.616l0.059-0.449c5.207,12.858,16.355,22.012,30.258,25.549
				l87.58-78.435h67.355l52.319,156.811L278.21,280.863L278.21,280.863z"/>
		</g>
	</g>
</g>
<g>
</g>
<g>
</g>
<g>
</g>
<g>
</g>
<g>
</g>
<g>
</g>
<g>
</g>
<g>
</g>
<g>
</g>
<g>
</g>
<g>
</g>
<g>
</g>
<g>
</g>
<g>
</g>
<g>
</g>
</svg>
