<?xml version="1.0" encoding="iso-8859-1"?>
<!-- Generator: Adobe Illustrator 19.1.0, SVG Export Plug-In . SVG Version: 6.00 Build 0)  -->
<svg version="1.1" id="Capa_1" xmlns="http://www.w3.org/2000/svg" xmlns:xlink="http://www.w3.org/1999/xlink" x="0px" y="0px"
	 viewBox="0 0 236.692 236.692" style="enable-background:new 0 0 236.692 236.692;" xml:space="preserve">
<g>
	<g>
		<g>
			<path style="fill:#010002;" d="M128.463,226.912V122.391h4.963l56.364-84.629H165.16l10.19-18.28l1.837,0.381
				c5.501,0,9.946-4.436,9.946-9.926S182.668,0,177.177,0c-5.481,0-9.926,4.445-9.926,9.946c0,3.107,1.524,5.774,3.791,7.621
				l-11.245,20.195H46.902l56.364,84.629h4.963v104.511c-18.524,0.537-32.32,2.482-32.32,4.826c0,2.726,18.993,4.963,42.442,4.963
				c23.439,0,42.412-2.228,42.412-4.963C160.763,229.374,146.977,227.44,128.463,226.912z M159.923,47.18h12.301l-10.806,16.228
				l-10.552,0.02L159.923,47.18z M75.333,63.477L64.468,47.161h90.091l-9.067,16.248L75.333,63.477z"/>
		</g>
	</g>
</g>
<g>
</g>
<g>
</g>
<g>
</g>
<g>
</g>
<g>
</g>
<g>
</g>
<g>
</g>
<g>
</g>
<g>
</g>
<g>
</g>
<g>
</g>
<g>
</g>
<g>
</g>
<g>
</g>
<g>
</g>
</svg>
