<?xml version="1.0" encoding="iso-8859-1"?>
<!-- Generator: Adobe Illustrator 19.1.0, SVG Export Plug-In . SVG Version: 6.00 Build 0)  -->
<svg version="1.1" id="Capa_1" xmlns="http://www.w3.org/2000/svg" xmlns:xlink="http://www.w3.org/1999/xlink" x="0px" y="0px"
	 viewBox="0 0 368.579 368.579" style="enable-background:new 0 0 368.579 368.579;" xml:space="preserve">
<g>
	<g>
		<g>
			<path style="fill:#010002;" d="M243.497,128.077l-27.571,8.705l1.7-5.305l22.979-6.937L243.497,128.077z M162.082,70.57
				l19.863,7.738l2.247,0.889l2.247-0.889l19.501-7.582l6.448-2.511l1.446-0.576l-7.328-13.229l-2.941-5.315
				c-6.399-1.348-13.014-2.091-19.814-2.091c-6.8,0-13.444,0.733-19.833,2.091l-2.687,5.247l-6.751,13.287l1.055,0.401
				L162.082,70.57z M242.598,95.992l0.459-6.458c-7.396-8.295-16.463-15.007-26.702-19.638l-6.048,2.355
				C223.116,77.106,234.225,85.411,242.598,95.992z M157.646,72.084l-6.097-2.374c-10.005,4.465-18.954,10.943-26.292,18.925
				l0.44,6.37C134.052,84.756,145.043,76.774,157.646,72.084z M202.589,167.92c0.606-1.807,9.995-30.639,11.451-35.124l0.059-0.156
				l0.107-0.352c-1.426-0.997-20.967-14.802-27.777-19.618l-2.247-1.593l-2.247,1.593l-27.777,19.618l0.107,0.352l0.059,0.156
				l11.431,35.124h36.052C201.808,167.92,202.589,167.92,202.589,167.92z M150.397,190.968l2.286,3.644l16.814-23.693h-5.53
				L150.397,190.968z M217.987,190.968l0.166-0.039l-14.225-20.009h-5.51l16.824,23.947L217.987,190.968z M186.439,108.976V81.522
				l-2.247,0.899l-2.247-0.899v27.454l2.247-1.583L186.439,108.976z M150.729,131.477l-23.028-7.152l-2.53,3.478l27.317,8.979
				L150.729,131.477z M250.688,185.233l-0.186,0.039l-6.741,1.837c-8.92,2.423-23.126,6.263-23.869,6.448L207.367,213.4
				l-3.664,5.803l-0.84,1.299c1.397,0.703,7.67,3.849,13.239,6.614l5.354,2.677c12.652-5.471,23.898-13.6,33.004-23.683
				l-1.045-5.667L250.688,185.233z M246.418,183.269l6.321-1.72c5.071-8.881,8.5-18.837,9.819-29.447l-4.045-5.071
				C257.693,160.348,253.365,172.736,246.418,183.269z M245.832,92.817l-0.469,6.859c-0.606,8.275-1.436,20.224-1.641,23.214
				l-0.029,0.684l2.53,3.234l12.467,15.622l4.279,5.374l0.547,0.703l10.903-10.522l4.23-4.084
				c-1.221-13.922-5.452-26.975-12.027-38.563l-5.833-0.997l-14.899-2.57L245.832,92.817z M327.178,0v285.758h-89.934
				l-52.964,82.822l-52.974-82.822H41.401V0H327.178z M285.02,143.426c0-55.651-45.119-100.76-100.75-100.76
				c-55.67,0-100.779,45.119-100.779,100.76c0,55.661,45.119,100.76,100.779,100.76C239.911,244.186,285.02,199.077,285.02,143.426z
				 M120.911,182.976c-6.653-10.2-10.864-22.149-11.812-34.987l-3.976,4.993l-0.049-0.078c1.426,10.581,4.69,19.97,9.868,28.812
				L120.911,182.976z M122.132,126.817l2.57-3.234l-0.059-0.684c-0.195-3.117-1.104-16.023-1.69-24.289l-0.459-6.79v-0.049
				l-15.877,2.755l-5.794,0.997c-6.409,11.324-10.581,24.054-11.881,37.625l4.182,4.055l11.47,11.089l0.254,0.225l4.045-5.061
				L122.132,126.817z M183.772,217.191c-6.292,0-12.398-0.782-18.202-2.237l3.371,5.335c4.817,0.918,9.751,1.426,14.841,1.426
				c5.403,0,10.689-0.557,15.789-1.612l3.439-5.413C196.844,216.341,190.425,217.191,183.772,217.191z M161.242,213.742
				c-3.42-5.481-8.06-12.76-10.708-16.941l-2.071-3.253l-0.469-0.117l-24.455-6.624l-5.823-1.573l-0.156,0.879l-2.443,15.456
				l-0.948,5.725c9.116,9.702,20.166,17.537,32.574,22.784l5.344-2.726l13.444-6.849l-0.723-1.075L161.242,213.742z"/>
		</g>
	</g>
</g>
<g>
</g>
<g>
</g>
<g>
</g>
<g>
</g>
<g>
</g>
<g>
</g>
<g>
</g>
<g>
</g>
<g>
</g>
<g>
</g>
<g>
</g>
<g>
</g>
<g>
</g>
<g>
</g>
<g>
</g>
</svg>
