<?xml version="1.0" encoding="iso-8859-1"?>
<!-- Generator: Adobe Illustrator 19.1.0, SVG Export Plug-In . SVG Version: 6.00 Build 0)  -->
<svg version="1.1" id="Capa_1" xmlns="http://www.w3.org/2000/svg" xmlns:xlink="http://www.w3.org/1999/xlink" x="0px" y="0px"
	 viewBox="0 0 417.938 417.938" style="enable-background:new 0 0 417.938 417.938;" xml:space="preserve">
<g>
	<g>
		<g>
			<path style="fill:#010002;" d="M46.955,0v324.047h101.952l60.067,93.891l60.077-93.891h101.932V0H46.955z M306.588,215.803
				c0,4.944-1.505,8.93-4.484,11.841c-4.465,4.377-10.874,4.856-14.919,4.856l-1.68-0.029c-8.49,0-14.851-2.189-18.847-6.517
				c-4.299-4.68-4.006-9.995-3.957-10.591l-0.01-100.193h-8.246v131.751h23.351v27.444H124.052v-27.444h23.321V49.281h107.042
				v54.889h19.218v111.614c-0.01,0.391,0.029,1.661,1.221,2.853c1.837,1.837,5.657,2.853,10.767,2.853
				c2.345,0.01,6.966,0.127,8.813-1.69c0.782-0.782,1.192-2.12,1.192-4.006V100.936l-21.768-22.178l7.845-7.689l24.904,25.373
				v119.343L306.588,215.803z M163.855,71.254h76.842v54.889h-76.842V71.254z"/>
		</g>
	</g>
</g>
<g>
</g>
<g>
</g>
<g>
</g>
<g>
</g>
<g>
</g>
<g>
</g>
<g>
</g>
<g>
</g>
<g>
</g>
<g>
</g>
<g>
</g>
<g>
</g>
<g>
</g>
<g>
</g>
<g>
</g>
</svg>
