<?xml version="1.0" encoding="iso-8859-1"?>
<!-- Generator: Adobe Illustrator 19.1.0, SVG Export Plug-In . SVG Version: 6.00 Build 0)  -->
<svg version="1.1" id="Capa_1" xmlns="http://www.w3.org/2000/svg" xmlns:xlink="http://www.w3.org/1999/xlink" x="0px" y="0px"
	 viewBox="0 0 433.17 433.17" style="enable-background:new 0 0 433.17 433.17;" xml:space="preserve">
<g>
	<g>
		<g>
			<path style="fill:#010002;" d="M48.665,0v335.869H154.31l62.265,97.301l62.285-97.301h105.645V0H48.665z M212.618,268.963
				h-76.266V161.921h44.757l-22.95,40.693l17.44-3.126l8.266,13.405l28.754-50.971C212.618,161.921,212.618,268.963,212.618,268.963
				z M296.915,268.963H221.04V162.595l28.373,50.463l8.226-13.581l17.459,2.96l-22.921-40.527h44.738V268.963z M221.939,153.401
				v-42.569H211.28v42.569h-87.541l-0.107-42.569h46.623c-6.868-3.537-11.851-7.836-14.968-12.789
				c-2.511-3.947-3.703-8.295-3.703-12.447c0.059-7.113,3.332-17.059,8.06-21.485c4.709-4.465,11.04-7.347,17.958-7.367
				c6.908,0,13.346,2.374,18.876,6.067c5.53,3.693,10.259,8.666,14.177,14.264c2.257,3.224,4.24,10.327,5.921,13.874l0.694-1.358
				c4.651-9.184,11.148-21.221,19.433-26.78c5.51-3.693,11.968-6.067,18.915-6.067c6.487,0,12.555,2.364,17.137,6.38
				c4.592,3.976,7.748,13.512,7.748,20.166c0.029,8.119-4.758,16.287-13.756,22.735c-2.345,1.7-5.002,3.293-7.943,4.817h50.629
				l0.127,42.569C309.529,153.401,221.949,153.401,221.939,153.401z M259.017,95.406c-6.439,4.699-17.625,9.497-34.84,12.877
				c1.641-6.82,4.826-14.04,9.028-20.019c3.146-4.533,6.888-11.988,10.737-14.558c3.849-2.56,7.748-3.869,11.626-3.889h0.059
				c3.244,0,6.37,1.26,8.471,3.146c2.14,1.915,3.263,5.403,3.263,7.865C267.351,83.74,265.827,90.442,259.017,95.406z
				 M204.226,95.474c1.974,3.869,3.478,7.924,4.485,11.871c-17.518-1.827-28.842-5.686-35.427-9.839
				c-3.517-2.218-5.657-4.455-6.956-6.439c-1.231-1.993-1.651-5.491-1.651-7.201c-0.039-2.872,1.387-7.885,3.937-10.249
				c2.491-2.355,5.843-3.81,8.871-3.81h0.088c3.859,0.02,7.748,1.329,11.617,3.889C194.964,77.516,200.425,87.892,204.226,95.474z"
				/>
		</g>
	</g>
</g>
<g>
</g>
<g>
</g>
<g>
</g>
<g>
</g>
<g>
</g>
<g>
</g>
<g>
</g>
<g>
</g>
<g>
</g>
<g>
</g>
<g>
</g>
<g>
</g>
<g>
</g>
<g>
</g>
<g>
</g>
</svg>
