<?xml version="1.0" encoding="iso-8859-1"?>
<!-- Generator: Adobe Illustrator 19.1.0, SVG Export Plug-In . SVG Version: 6.00 Build 0)  -->
<svg version="1.1" id="Capa_1" xmlns="http://www.w3.org/2000/svg" xmlns:xlink="http://www.w3.org/1999/xlink" x="0px" y="0px"
	 viewBox="0 0 212.511 212.511" style="enable-background:new 0 0 212.511 212.511;" xml:space="preserve">
<g>
	<g>
		<g>
			<path style="fill:#010002;" d="M95.904,61.899h35.388v10.386H95.904V61.899z M78.327,82.006l-35.3,61.171l35.309,61.073h70.57
				l35.261-61.073l-35.261-61.171H78.327z M95.347,148.756H76.833v-5.569h18.495L95.347,148.756L95.347,148.756z M74.361,134.218
				l16.873-32.632h44.777l16.863,32.632H74.361z M120.046,10.293V8.261H92.465v2.032H0v7.982h92.455v2.091h12.828l18.28,18.27
				l-12.535,12.506l5.168,5.247l17.762-17.762l-18.231-18.27h4.318v-2.101h92.465v-7.963H120.046z"/>
		</g>
	</g>
</g>
<g>
</g>
<g>
</g>
<g>
</g>
<g>
</g>
<g>
</g>
<g>
</g>
<g>
</g>
<g>
</g>
<g>
</g>
<g>
</g>
<g>
</g>
<g>
</g>
<g>
</g>
<g>
</g>
<g>
</g>
</svg>
