<?xml version="1.0" encoding="iso-8859-1"?>
<!-- Generator: Adobe Illustrator 19.1.0, SVG Export Plug-In . SVG Version: 6.00 Build 0)  -->
<svg version="1.1" id="Capa_1" xmlns="http://www.w3.org/2000/svg" xmlns:xlink="http://www.w3.org/1999/xlink" x="0px" y="0px"
	 viewBox="0 0 409.536 409.536" style="enable-background:new 0 0 409.536 409.536;" xml:space="preserve">
<g>
	<g>
		<g>
			<path style="fill:#010002;" d="M46.008,0v43.868h108.136V43.36h35.534v-2.726h32.251v3.234h139.987v7.66H221.91v3.273h-5.08
				l21.338,21.348L217.425,96.91l-6.058-6.106l14.645-14.655l-21.348-21.348h-14.997v-2.833h-35.534v-0.449H46.008V317.53h99.89
				l58.875,92.006l58.875-92.006h99.88V0H46.008z M193.703,103.349h41.347v12.115h-41.347V103.349z M255.636,269.784h-82.499
				l-41.298-71.439l41.298-71.469h82.499l41.25,71.469L255.636,269.784z M171.398,198.354h21.651v6.517h-21.651V198.354z
				 M240.571,149.767l19.677,38.133h-91.742l19.716-38.133H240.571z"/>
		</g>
	</g>
</g>
<g>
</g>
<g>
</g>
<g>
</g>
<g>
</g>
<g>
</g>
<g>
</g>
<g>
</g>
<g>
</g>
<g>
</g>
<g>
</g>
<g>
</g>
<g>
</g>
<g>
</g>
<g>
</g>
<g>
</g>
</svg>
