<?xml version="1.0" encoding="iso-8859-1"?>
<!-- Generator: Adobe Illustrator 19.1.0, SVG Export Plug-In . SVG Version: 6.00 Build 0)  -->
<svg version="1.1" id="Capa_1" xmlns="http://www.w3.org/2000/svg" xmlns:xlink="http://www.w3.org/1999/xlink" x="0px" y="0px"
	 viewBox="0 0 252.891 252.891" style="enable-background:new 0 0 252.891 252.891;" xml:space="preserve">
<g>
	<g>
		<g>
			<g>
				<path style="fill:#010002;" d="M110.637,204.011l16.521-0.039v-0.156h-0.068l0.078-0.518v-3.078c-0.176-2.648,0-13.942,0-13.942
					c-1.641-19.032-9.37-49.163-40.077-69.407c-0.576-0.371-14.997-9.389-20.078-30.678C62.08,65.226,68.02,40.39,84.678,12.34
					C62.451,26.262,47.6,50.981,47.6,79.216c0,24.308,11.07,46.047,28.373,60.477c0,0,5.442,4.211,7.083,5.295
					C113.617,168.731,110.637,204.011,110.637,204.011z M162.634,114.252c0.176-0.029,16.619-9.477,17.704-30.112
					c1.202-21.543-3.224-47.854-21.016-76.569c-8.852-4.103-18.641-6.556-28.929-7.103v167.382
					C134.985,150.079,139.381,129.601,162.634,114.252z M75.68,83.721c1.143,20.537,17.557,30.004,17.723,30.063
					c23.243,15.378,27.669,35.827,32.271,53.599V0c-10.298,0.508-20.039,2.999-28.89,7.083
					C78.962,35.827,74.566,62.128,75.68,83.721z M159.322,7.513v0.068l0.42,0.166L159.322,7.513z M169.893,12.008
					c18.104,29.271,25.627,51.87,20.459,73.608c-5.002,21.221-19.472,30.356-20.097,30.688
					c-29.867,19.658-37.938,48.802-39.862,67.844v19.814h17.274c0,0-0.42-39.335,24.543-60.614
					c22.589-15.193,33.082-37.703,33.082-64.131C205.271,49.75,193.762,25.529,169.893,12.008z M129.953,204.245h0.44v-0.274h-0.42
					L129.953,204.245z M108.234,209.521h43.467v43.37h-43.467C108.234,252.891,108.234,209.521,108.234,209.521z"/>
			</g>
		</g>
	</g>
</g>
<g>
</g>
<g>
</g>
<g>
</g>
<g>
</g>
<g>
</g>
<g>
</g>
<g>
</g>
<g>
</g>
<g>
</g>
<g>
</g>
<g>
</g>
<g>
</g>
<g>
</g>
<g>
</g>
<g>
</g>
</svg>
