<?xml version="1.0" encoding="iso-8859-1"?>
<!-- Generator: Adobe Illustrator 19.1.0, SVG Export Plug-In . SVG Version: 6.00 Build 0)  -->
<svg version="1.1" id="Capa_1" xmlns="http://www.w3.org/2000/svg" xmlns:xlink="http://www.w3.org/1999/xlink" x="0px" y="0px"
	 viewBox="0 0 411.627 411.627" style="enable-background:new 0 0 411.627 411.627;" xml:space="preserve">
<g>
	<g>
		<g>
			<path style="fill:#010002;" d="M194.939,112.005l1.622,2.257v100.242c-9.389-8.295-23.839-16.834-42.744-16.834h-0.049
				c-18.622,0-32.72,8.256-41.953,16.453v-99.949c1.641-2.491,5.178-7.396,10.542-12.135c7.367-6.478,17.655-12.437,31.47-12.437
				c14.157,0,24.963,6.399,32.544,13.131C190.142,106.075,193.073,109.475,194.939,112.005z M130.72,219.848h46.34
				c-6.39-3.703-14.128-6.399-23.263-6.399C144.574,213.468,136.992,216.155,130.72,219.848z M231.333,219.848h46.34
				c-6.39-3.703-14.128-6.399-23.302-6.399C245.187,213.468,237.605,216.155,231.333,219.848z M365.399,0v319.152H264.942
				l-59.158,92.475l-59.168-92.475H46.228V0H365.399z M322.713,243.736v-117.74h-9.692v-14.108l-1.045-3.918
				c-0.322-0.469-5.002-8.666-14.46-17.117c-9.389-8.383-23.966-17.117-43.145-17.117c-19.159,0-33.58,8.754-42.803,17.195
				c-2.833,2.628-5.217,5.188-7.201,7.523c-2.032-2.374-4.514-4.953-7.435-7.591c-9.37-8.383-23.966-17.117-43.116-17.117
				c-19.218,0-33.639,8.754-42.871,17.195c-9.233,8.471-13.756,16.707-14.01,17.195l-0.997,3.771v14.108h-7.064v117.711h233.839
				V243.736z M287.003,102.724c-7.65-6.732-18.436-13.131-32.632-13.131c-13.747,0-24.044,5.96-31.431,12.437
				c-5.354,4.739-8.91,9.663-10.552,12.135v99.949c9.213-8.187,23.37-16.482,41.982-16.453c18.935,0,33.355,8.51,42.784,16.834
				V114.252l-1.622-2.257C293.637,109.475,290.775,106.075,287.003,102.724z"/>
		</g>
	</g>
</g>
<g>
</g>
<g>
</g>
<g>
</g>
<g>
</g>
<g>
</g>
<g>
</g>
<g>
</g>
<g>
</g>
<g>
</g>
<g>
</g>
<g>
</g>
<g>
</g>
<g>
</g>
<g>
</g>
<g>
</g>
</svg>
