<?xml version="1.0" encoding="iso-8859-1"?>
<!-- Generator: Adobe Illustrator 19.1.0, SVG Export Plug-In . SVG Version: 6.00 Build 0)  -->
<svg version="1.1" id="Capa_1" xmlns="http://www.w3.org/2000/svg" xmlns:xlink="http://www.w3.org/1999/xlink" x="0px" y="0px"
	 viewBox="0 0 465.959 465.959" style="enable-background:new 0 0 465.959 465.959;" xml:space="preserve">
<g>
	<g>
		<g>
			<path style="fill:#010002;" d="M52.334,0v361.291H165.99l66.974,104.668l66.975-104.668h113.686V0H52.334z M197.597,274.63
				c0,17.987-10.933,32.554-28.929,32.554s-28.91-14.567-28.91-32.554l-3.664-111.126c0-17.987,14.577-32.583,32.574-32.583
				s32.593,14.597,32.593,32.583L197.597,274.63z M180.04,103.056c-18.016,0-32.593-3.566-32.593-21.573S162.024,48.9,180.04,48.9
				l111.087-7.347c18.016,0,32.574,14.597,32.574,32.583c0,17.997-14.558,32.583-32.574,32.583L180.04,103.056z M341.277,274.63
				c0,17.987-10.933,32.554-28.929,32.554s-28.91-14.567-28.91-32.554l-3.683-111.126c0-17.987,14.597-32.583,32.593-32.583
				s32.593,14.597,32.593,32.583L341.277,274.63z"/>
		</g>
	</g>
</g>
<g>
</g>
<g>
</g>
<g>
</g>
<g>
</g>
<g>
</g>
<g>
</g>
<g>
</g>
<g>
</g>
<g>
</g>
<g>
</g>
<g>
</g>
<g>
</g>
<g>
</g>
<g>
</g>
<g>
</g>
</svg>
