<?xml version="1.0" encoding="iso-8859-1"?>
<!-- Generator: Adobe Illustrator 19.1.0, SVG Export Plug-In . SVG Version: 6.00 Build 0)  -->
<svg version="1.1" id="Capa_1" xmlns="http://www.w3.org/2000/svg" xmlns:xlink="http://www.w3.org/1999/xlink" x="0px" y="0px"
	 viewBox="0 0 431.587 431.587" style="enable-background:new 0 0 431.587 431.587;" xml:space="preserve">
<g>
	<g>
		<g>
			<path style="fill:#010002;" d="M243.683,205.007c-14.411-22.315-31.665-46.291-46.672-59.305
				c-2.179-1.886-5.95,67.951-8.832-4.905s-9.418-7.474-10.386-4.357c0,0-3.087,27.835-9.018,1.514
				c-1.006-28.373-18.954,15.368-18.954,15.368L96.016,256.271h178.188c0,0-11.07-20.556-26.292-44.689L243.683,205.007z M48.484,0
				v334.618h105.274l62.041,96.969l62.041-96.969h105.264V0H48.484z M216.385,262.817H85.67l94.165-199.341l68.977,130.695
				l4.123,7.797l29.731,56.335l2.364,4.504L216.385,262.817L216.385,262.817z M291.556,256.281l-2.384-4.494h63.565
				c0,0-30.385-56.403-53.169-76.158c-1.475-1.29-4.084,46.799-6.067-3.38c-1.993-50.18-6.507-5.149-7.161-3.009
				c0,0-2.12,19.169-6.204,1.045c-0.703-19.56-13.063,10.571-13.063,10.571l-7.621,14.577l-4.123-7.797l32.427-68.635
				l72.436,137.281H291.556L291.556,256.281z"/>
		</g>
	</g>
</g>
<g>
</g>
<g>
</g>
<g>
</g>
<g>
</g>
<g>
</g>
<g>
</g>
<g>
</g>
<g>
</g>
<g>
</g>
<g>
</g>
<g>
</g>
<g>
</g>
<g>
</g>
<g>
</g>
<g>
</g>
</svg>
