<?xml version="1.0" encoding="iso-8859-1"?>
<!-- Generator: Adobe Illustrator 19.1.0, SVG Export Plug-In . SVG Version: 6.00 Build 0)  -->
<svg version="1.1" id="Capa_1" xmlns="http://www.w3.org/2000/svg" xmlns:xlink="http://www.w3.org/1999/xlink" x="0px" y="0px"
	 viewBox="0 0 270.565 270.565" style="enable-background:new 0 0 270.565 270.565;" xml:space="preserve">
<g>
	<g>
		<g>
			<path style="fill:#010002;" d="M270.565,227.068h-67.649l-2.316-4.397h62.637c0,0-29.985-55.563-52.407-75.084
				c-1.436-1.28-4.025,46.125-5.989-3.332c-1.954-49.466-6.439-5.09-7.083-2.98c0,0-2.071,18.895-6.067,1.055
				c-0.723-19.296-12.897,10.415-12.897,10.415l-7.533,14.372l-4.035-7.689l31.958-67.649L270.565,227.068z M194.153,229.071
				l2.335,4.426H0L92.797,37.068l67.991,128.81l4.064,7.67L194.153,229.071z M185.809,227.049c0,0-10.933-20.224-25.93-44.044
				l-4.143-6.507c-14.196-21.944-31.186-45.588-46.017-58.416c-2.14-1.817-5.862,66.955-8.686-4.846
				c-2.863-71.791-9.291-7.337-10.268-4.299c0,0-3.029,27.454-8.852,1.485c-1.016-27.952-18.72,15.134-18.72,15.134L10.161,227.049
				H136.89H185.809L185.809,227.049z"/>
		</g>
	</g>
</g>
<g>
</g>
<g>
</g>
<g>
</g>
<g>
</g>
<g>
</g>
<g>
</g>
<g>
</g>
<g>
</g>
<g>
</g>
<g>
</g>
<g>
</g>
<g>
</g>
<g>
</g>
<g>
</g>
<g>
</g>
</svg>
