<?xml version="1.0" encoding="iso-8859-1"?>
<!-- Generator: Adobe Illustrator 19.1.0, SVG Export Plug-In . SVG Version: 6.00 Build 0)  -->
<svg version="1.1" id="Capa_1" xmlns="http://www.w3.org/2000/svg" xmlns:xlink="http://www.w3.org/1999/xlink" x="0px" y="0px"
	 viewBox="0 0 206.395 206.395" style="enable-background:new 0 0 206.395 206.395;" xml:space="preserve">
<g>
	<g>
		<g>
			<path style="fill:#010002;" d="M162.976,80.961c10.913,0,19.745,8.832,19.745,19.765c0,10.874-8.822,19.716-19.745,19.716
				c-10.884,0-19.726-8.842-19.726-19.716C143.25,89.793,152.082,80.961,162.976,80.961z M143.709,190.621l0.166-0.889
				c0.469-3.674,0.733-7.289,0.928-10.933c0.303-7.22,0.059-14.431-0.703-21.514c-1.505-14.186-5.198-28.07-11.206-40.751
				c-5.237-11.177-22.618-39.032-33.219-51.85c3.322-1.798,9.897-5.041,12.242-5.979c5.413-2.316,11.255-3.762,17.235-4.113
				c6.028-0.371,12.222,0.352,18.26,2.169c6.018,1.856,11.871,4.787,17.332,8.451c-4.445-4.836-9.555-9.194-15.456-12.691
				c-5.872-3.429-12.516-5.97-19.54-7.201c-7.005-1.251-14.343-1.192-21.485-0.039c-2.833,0.44-5.589,1.124-8.324,1.895l1.456-4.553
				c2.062-5.53,4.924-10.776,8.764-15.408c3.859-4.67,8.588-8.705,14.059-11.841c5.471-3.195,11.597-5.403,17.977-6.927
				c-6.546-0.02-13.229,0.713-19.775,2.667c-6.536,1.915-12.897,5.041-18.563,9.36c-5.745,4.23-10.679,9.643-14.753,15.652
				c-2.022,3.029-3.791,6.224-5.393,9.565c-0.791,1.671-1.524,3.4-2.169,5.12l-0.811,2.286l-1.749-0.254
				c-1.856-0.234-3.713-0.391-5.559-0.489c-3.674-0.137-7.328-0.029-10.923,0.361c-7.23,0.772-14.323,2.657-20.781,5.696
				C35.3,61.459,29.565,65.68,24.816,70.575c-4.758,4.885-8.549,10.444-11.568,16.258c4.27-4.944,9.155-9.35,14.499-12.701
				c5.325-3.361,11.138-5.745,17.039-6.917c5.882-1.26,11.89-1.358,17.723-0.596c1.456,0.186,4.553,0.752,7.611,1.358l-0.752,0.86
				c-4.572,5.647-8.236,11.988-10.64,18.7c-2.423,6.693-3.507,13.708-3.4,20.537c0.068,6.849,1.348,13.454,3.341,19.716
				c-0.489-6.556-0.166-13.072,1.251-19.237c1.378-6.165,3.84-11.89,7.132-16.941c3.332-5.041,7.464-9.379,12.125-12.926
				c1.729-1.309,6.321-4.475,9.682-6.634c4.924,5.374,9.409,11.021,13.17,17c6.614,10.493,11.265,21.856,13.659,33.443
				c2.403,11.607,2.618,23.37,1.104,34.821c-0.752,5.716-4.24,23.82-5.813,29.252l-1.329,4.055H0v7.328h206.395v-7.328H143.709z"/>
		</g>
	</g>
</g>
<g>
</g>
<g>
</g>
<g>
</g>
<g>
</g>
<g>
</g>
<g>
</g>
<g>
</g>
<g>
</g>
<g>
</g>
<g>
</g>
<g>
</g>
<g>
</g>
<g>
</g>
<g>
</g>
<g>
</g>
</svg>
