<?xml version="1.0" encoding="iso-8859-1"?>
<!-- Generator: Adobe Illustrator 19.1.0, SVG Export Plug-In . SVG Version: 6.00 Build 0)  -->
<svg version="1.1" id="Capa_1" xmlns="http://www.w3.org/2000/svg" xmlns:xlink="http://www.w3.org/1999/xlink" x="0px" y="0px"
	 viewBox="0 0 406.38 406.38" style="enable-background:new 0 0 406.38 406.38;" xml:space="preserve">
<g>
	<g>
		<g>
			<path style="fill:#010002;" d="M240.815,130.51c0,20.693-14.567,32.525-38.446,32.525c-6.595,0-12.066-0.459-16.375-1.602
				v-59.588c3.4-0.909,9.985-1.593,18.641-1.593C226.238,100.252,240.815,110.022,240.815,130.51z M310.525,163.631
				c0,59.197-48.186,107.374-107.364,107.374c-59.207,0-107.364-48.167-107.364-107.374c0-59.197,48.167-107.355,107.364-107.355
				C262.358,56.276,310.525,104.433,310.525,163.631z M260.59,129.367c0-13.639-5.237-24.787-13.424-32.066
				c-9.096-8.197-23.419-12.74-42.969-12.74c-15.906,0-28.441,1.358-37.996,2.951v151.477h19.804v-61.405
				c4.543,1.133,9.985,1.358,15.906,1.358c19.335,0,36.169-5.686,46.848-16.824C256.486,154.154,260.59,143.231,260.59,129.367z
				 M360.734,0v315.088h-99.157L203.18,406.38l-58.416-91.292H45.646V0H360.734z M320.911,163.631
				c0-64.933-52.818-117.74-117.74-117.74c-64.933,0-117.76,52.808-117.76,117.74s52.818,117.76,117.76,117.76
				C268.093,281.391,320.921,228.573,320.911,163.631z"/>
		</g>
	</g>
</g>
<g>
</g>
<g>
</g>
<g>
</g>
<g>
</g>
<g>
</g>
<g>
</g>
<g>
</g>
<g>
</g>
<g>
</g>
<g>
</g>
<g>
</g>
<g>
</g>
<g>
</g>
<g>
</g>
<g>
</g>
</svg>
