<?xml version="1.0" encoding="iso-8859-1"?>
<!-- Generator: Adobe Illustrator 19.1.0, SVG Export Plug-In . SVG Version: 6.00 Build 0)  -->
<svg version="1.1" id="Capa_1" xmlns="http://www.w3.org/2000/svg" xmlns:xlink="http://www.w3.org/1999/xlink" x="0px" y="0px"
	 viewBox="0 0 424.24 424.24" style="enable-background:new 0 0 424.24 424.24;" xml:space="preserve">
<g>
	<g>
		<g>
			<path style="fill:#010002;" d="M200.743,219.428v0.098c-12.467,1.28-21.397,4.631-21.406,8.647
				c-0.039,4.67,12.008,8.608,27.767,9.418l-0.889-17.801L200.743,219.428z M202.619,255.89c-8.754,1.016-14.987,3.41-14.987,6.263
				c0,3.478,9.194,6.302,21.016,6.702l-0.625-12.594L202.619,255.89z M202.13,238.822v0.156
				c-10.982,1.192-18.827,4.191-18.827,7.718c0,4.123,10.708,7.533,24.65,8.158l-0.782-15.691L202.13,238.822z M216.609,268.777
				c10.767-0.645,18.817-3.361,18.817-6.624c0-2.726-5.725-5.041-13.903-6.116l-4.484,0.234
				C217.039,256.262,216.609,268.777,216.609,268.777z M212.858,74.195c7.191,0,13.014,5.823,13.014,13.014
				s-5.823,13.014-13.014,13.014s-13.014-5.823-13.014-13.014S205.657,74.195,212.858,74.195z M220.097,254.679l0.039-0.088
				l0.44,0.049c12.174-1.006,21.152-4.152,21.152-7.943c0-3.537-7.894-6.507-18.866-7.699l-5.208,0.244l-0.547,15.613
				C217.088,254.855,220.097,254.679,220.097,254.679z M205.237,269.852c-6.839,0.83-11.685,2.716-11.685,4.944
				c0,2.657,6.771,4.856,15.671,5.315l-0.508-10.112L205.237,269.852z M47.664,0v328.932h103.486l60.976,95.308l60.985-95.308
				h103.466V0H47.664z M297.262,173.069c0,0-26.487,5.012-61.728-11.255v-10.014H225.53v9.174h-5.149l-1.241,35.407
				c19.677-0.928,34.616-5.716,34.655-11.617c0.039-5.217-11.675-9.682-27.992-11.47v-2.169
				c20.566,1.837,35.661,7.269,35.622,13.668c-0.039,5.442-10.952,10.093-26.868,12.349c12.926,2.081,21.397,6.009,21.397,10.581
				c0,4.934-10.337,9.164-25.119,11.099c12.291,1.895,20.723,5.559,20.713,9.78c-0.039,4.328-8.93,7.972-21.729,9.692
				c10.337,1.641,17.137,4.768,17.137,8.393c0,3.918-8.207,7.259-19.931,8.793c7.738,1.387,12.76,3.84,12.76,6.663
				c0,3.156-6.536,5.862-15.945,7.142c6.8,1.055,11.285,3.117,11.285,5.501c0,3.175-8.226,5.784-18.935,6.243l-0.586,17.059h-5.471
				l-0.85-17.059c-10.581-0.498-18.7-3.078-18.7-6.243c0-2.257,4.24-4.211,10.552-5.315c-10.112-1.202-17.235-4.016-17.235-7.337
				c0-2.921,5.628-5.432,13.913-6.79c-11.265-1.583-19.081-4.846-19.081-8.666c0-3.674,7.289-6.829,17.928-8.471
				c-13.287-1.827-22.55-5.667-22.51-10.112c0.029-4.123,8.168-7.611,20.039-9.389c-14.431-1.983-24.455-6.126-24.455-10.991
				c0-4.524,8.764-8.412,21.641-10.522c-17.225-2.316-29.174-7.298-29.144-13.014c0.039-6.224,14.401-11.333,34.117-13.082v2.042
				c-16.004,1.651-27.425,5.93-27.454,11.079c-0.039,6.067,15.691,11.118,36.169,12.105l-1.759-35.368h-6.566v-9.174h-9.008v10.014
				c-35.261,16.267-61.728,11.255-61.728,11.255c-60.077,0-61.747-50.053-61.747-50.053c16.678,16.697,41.709,0,41.709,0
				c39.217-39.208,81.766,0,81.766,0v6.673h9.008v-7.269c-13.327-5.764-22.657-19.013-22.657-34.44
				c0-20.752,16.795-37.566,37.547-37.566c20.732,0,37.557,16.805,37.557,37.566c0,15.818-9.829,29.281-23.673,34.811v6.898h9.985
				v-6.673c0,0,42.559-39.208,81.766,0c0,0,25.031,16.697,41.728,0C359,123.016,357.319,173.069,297.262,173.069z M249.33,207.723
				c0-4.416-9.663-8.129-23.224-9.663c-2.276,0.186-4.641,0.303-7.035,0.391l-0.684,19.589
				C235.915,217.23,249.33,212.941,249.33,207.723z M245.617,228.573c0.039-4.084-9.135-7.572-21.856-8.949v-0.098l-5.422,0.283
				l-0.625,17.831C233.473,237.024,245.578,233.263,245.617,228.573z M175.506,207.723c0,5.178,13.258,9.448,30.629,10.308
				l-0.967-19.628l-6.243-0.391C185.237,199.546,175.506,203.298,175.506,207.723z M231.724,274.805
				c0-2.325-5.208-4.27-12.418-5.022l-2.726,0.195l-0.352,10.151C225.031,279.632,231.724,277.443,231.724,274.805z
				 M235.515,129.679h7.728v22.11h-7.728V129.679z M223.195,129.679h2.316v22.11h-2.316V129.679z M183.166,129.679h4.572v22.11
				h-4.572V129.679z M196.747,129.679h6.458v22.11h-6.458V129.679z M203.205,159.176l0.088,1.788h17.078l0.059-1.788H203.205z
				 M205.042,196.331l0.107,2.071c2.159,0.098,4.348,0.166,6.595,0.176c2.491,0.02,4.914-0.039,7.308-0.127l0.068-2.081
				c-2.55,0.117-5.168,0.186-7.865,0.176C211.265,196.556,205.042,196.331,205.042,196.331z M206.116,218.031l0.088,1.739
				c2.179,0.098,4.357,0.195,6.634,0.195l5.462-0.166l0.059-1.768l-5.95,0.166C210.269,218.217,208.188,218.138,206.116,218.031z
				 M199.336,197.953v-1.807c-2.814,0.264-5.432,0.645-7.972,1.045c2.413,0.332,4.934,0.596,7.552,0.811L199.336,197.953z
				 M224.943,197.924l1.163,0.147c2.941-0.234,5.745-0.547,8.432-0.928c-2.785-0.449-5.706-0.84-8.871-1.104L224.943,197.924z
				 M207.103,237.581l0.078,1.583l5.598,0.186l4.866-0.107l0.049-1.602l-5.276,0.117L207.103,237.581z M200.762,217.943
				c-2.316,0.195-4.484,0.479-6.585,0.782c2.101,0.283,4.299,0.528,6.575,0.703L200.762,217.943z M223.742,219.526
				c2.443-0.186,4.817-0.401,7.093-0.694c-2.247-0.352-4.602-0.655-7.083-0.889L223.742,219.526z M217.039,256.271l0.049-1.417
				l-4.592,0.137l-4.543-0.137l0.068,1.397l4.807,0.147L217.039,256.271z M202.13,237.552c-1.925,0.176-3.732,0.42-5.481,0.684
				l5.481,0.586V237.552z M222.413,238.939l0.44,0.049c2.443-0.176,4.748-0.401,6.976-0.703c-2.159-0.342-4.397-0.635-6.829-0.84
				L222.413,238.939z M208.657,268.855l0.059,1.143l3.097,0.098l4.758-0.137l0.049-1.182l-5.071,0.156L208.657,268.855z
				 M220.097,254.679l-0.43,1.114l1.866,0.234l5.481-0.547c-1.993-0.361-4.133-0.655-6.458-0.86
				C220.557,254.62,220.097,254.679,220.097,254.679z M203.048,255.842v-1.163c-1.856,0.176-3.586,0.42-5.247,0.684l4.817,0.557
				L203.048,255.842z M212.623,280.228l-3.41-0.098l0.049,0.918l3.586,0.107l3.332-0.107l0.039-0.918L212.623,280.228z
				 M219.091,269.744l0.205,0.029l4.533-0.469l-4.357-0.537L219.091,269.744z M205.862,269.754v-0.928
				c-1.69,0.166-3.253,0.381-4.739,0.645l4.123,0.361L205.862,269.754z M225.51,122.782v-4.367h-28.763v3.996
				c4.572,1.974,9.585,3.097,14.89,3.097C216.541,125.508,221.211,124.501,225.51,122.782z"/>
		</g>
	</g>
</g>
<g>
</g>
<g>
</g>
<g>
</g>
<g>
</g>
<g>
</g>
<g>
</g>
<g>
</g>
<g>
</g>
<g>
</g>
<g>
</g>
<g>
</g>
<g>
</g>
<g>
</g>
<g>
</g>
<g>
</g>
</svg>
