<?xml version="1.0" encoding="iso-8859-1"?>
<!-- Generator: Adobe Illustrator 19.1.0, SVG Export Plug-In . SVG Version: 6.00 Build 0)  -->
<svg version="1.1" id="Capa_1" xmlns="http://www.w3.org/2000/svg" xmlns:xlink="http://www.w3.org/1999/xlink" x="0px" y="0px"
	 viewBox="0 0 200.679 200.679" style="enable-background:new 0 0 200.679 200.679;" xml:space="preserve">
<g>
	<g>
		<g>
			<path style="fill:#010002;" d="M99.617,116.411c-3.644,0-6.683-0.274-9.067-0.889V82.489c1.876-0.508,5.52-0.879,10.337-0.879
				c11.968,0,20.039,5.413,20.039,16.766C120.925,109.826,112.855,116.402,99.617,116.411z M99.538,7.797
				C49.349,7.797,23.4,0,23.4,0v48.841h153.88V0C177.28,0,152.962,7.797,99.538,7.797z M23.507,57.634h153.675
				c0,0-0.606,101.346-76.95,143.045C22.364,159.498,23.507,57.624,23.507,57.634z M79.598,158.521h10.972v-34.029
				c2.511,0.616,5.52,0.743,8.832,0.743c10.718,0,20.039-3.136,25.94-9.321c4.289-4.426,6.585-10.483,6.585-18.143
				c0-7.572-2.902-13.756-7.455-17.791c-5.032-4.543-12.945-7.054-23.82-7.054c-8.822,0-15.749,0.743-21.035,1.632v83.965
				L79.598,158.521L79.598,158.521z"/>
		</g>
	</g>
</g>
<g>
</g>
<g>
</g>
<g>
</g>
<g>
</g>
<g>
</g>
<g>
</g>
<g>
</g>
<g>
</g>
<g>
</g>
<g>
</g>
<g>
</g>
<g>
</g>
<g>
</g>
<g>
</g>
<g>
</g>
</svg>
