<?xml version="1.0" encoding="iso-8859-1"?>
<!-- Generator: Adobe Illustrator 19.1.0, SVG Export Plug-In . SVG Version: 6.00 Build 0)  -->
<svg version="1.1" id="Capa_1" xmlns="http://www.w3.org/2000/svg" xmlns:xlink="http://www.w3.org/1999/xlink" x="0px" y="0px"
	 viewBox="0 0 420.019 420.019" style="enable-background:new 0 0 420.019 420.019;" xml:space="preserve">
<g>
	<g>
		<g>
			<path style="fill:#010002;" d="M160.016,83.984c8.158-19.609,27.503-33.443,50.023-33.443s41.855,13.825,50.004,33.394
				c-10.786-16.15-29.174-26.819-50.004-26.819C189.18,57.126,170.792,67.815,160.016,83.984z M372.839,0v325.659h-102.43
				l-60.399,94.36l-60.38-94.36H47.18V0H372.839z M312.733,274.61l-15.114-168.33h-25.823v-1.563
				c0-34.029-27.718-61.738-61.738-61.738c-34.059,0-61.757,27.708-61.757,61.738v1.563h-25.842l-15.105,168.33H312.733z
				 M210.049,65.714c-24.67,0-45.294,17.42-50.336,40.575h100.672C255.353,83.125,234.699,65.714,210.049,65.714z"/>
		</g>
	</g>
</g>
<g>
</g>
<g>
</g>
<g>
</g>
<g>
</g>
<g>
</g>
<g>
</g>
<g>
</g>
<g>
</g>
<g>
</g>
<g>
</g>
<g>
</g>
<g>
</g>
<g>
</g>
<g>
</g>
<g>
</g>
</svg>
