<?xml version="1.0" encoding="iso-8859-1"?>
<!-- Generator: Adobe Illustrator 19.1.0, SVG Export Plug-In . SVG Version: 6.00 Build 0)  -->
<svg version="1.1" id="Capa_1" xmlns="http://www.w3.org/2000/svg" xmlns:xlink="http://www.w3.org/1999/xlink" x="0px" y="0px"
	 viewBox="0 0 184.434 184.434" style="enable-background:new 0 0 184.434 184.434;" xml:space="preserve">
<g>
	<g>
		<g>
			<path style="fill:#010002;" d="M91.743,0.021C40.801,0.294-0.253,41.788,0.001,92.71c0.274,50.922,41.797,91.976,92.719,91.703
				c50.922-0.264,91.986-41.748,91.713-92.699C184.169,40.811,142.675-0.243,91.743,0.021z M73.795,117.468l5.041-0.039
				l-15.271,21.787l-2.11-3.332L73.795,117.468z M38.066,78.221l2.276-3.205l21.143,6.429l1.593,4.846L38.066,78.221z
				 M75.398,114.713c-0.528-1.651-9.243-27.982-10.62-32.085l-0.059-0.117l-0.107-0.342c1.28-0.918,19.11-13.639,25.305-18.104
				l2.052-1.475l2.062,1.456l25.51,17.821l-0.068,0.342l-0.068,0.117c-1.28,4.113-9.78,30.561-10.308,32.202h-0.694l-4.729,0.039
				L75.398,114.713z M89.779,35.594l2.061,0.782l2.032-0.811l0.147,25.119l-2.052-1.446l-2.052,1.475L89.779,35.594z
				 M110.355,117.272l13.121,18.231l-0.176,0.059l-2.482,3.556l-15.515-21.817L110.355,117.272z M121.132,85.979l1.563-4.856
				l20.967-6.478l2.706,3.224L121.132,85.979z M145.743,42.619l-0.371,5.891c-7.709-9.624-17.918-17.156-29.682-21.563l5.52-2.189
				C130.609,28.931,138.943,35.047,145.743,42.619z M70.737,10.807l2.403-4.817c5.852-1.27,11.929-1.983,18.124-1.993
				c6.233-0.049,12.301,0.586,18.163,1.788l2.697,4.866l6.8,12.076l-1.329,0.528l-5.901,2.345l-17.831,7.025l-2.032,0.811
				l-2.052-0.791l-18.212-6.986l-5.979-2.286L64.562,23L70.737,10.807z M61.905,24.905l5.589,2.169
				c-11.49,4.348-21.485,11.705-29.096,21.123l-0.44-5.813C44.622,35.017,52.799,29.067,61.905,24.905z M19.346,97.058L8.775,86.985
				l-3.849-3.703C6.068,70.854,9.82,59.189,15.614,48.793l5.305-0.928l14.518-2.628v0.049l0.479,6.224l1.661,22.237l0.039,0.616
				l-2.306,2.951l-12.056,15.3l-3.674,4.651L19.346,97.058z M19.815,101.269l0.02,0.078l3.625-4.572
				c0.938,11.744,4.866,22.647,10.991,31.968l-5.442-1.163C24.192,119.539,21.144,110.961,19.815,101.269z M63.195,169.162
				l-4.885,2.53c-11.353-4.709-21.524-11.851-29.897-20.703l0.821-5.237l2.149-14.147l0.166-0.801l5.344,1.387l22.383,5.95
				l0.459,0.107l1.895,2.999l9.868,15.437l3.341,5.178l0.645,0.967L63.195,169.162z M92.144,163.876
				c-4.641,0.02-9.155-0.401-13.581-1.231l-3.107-4.866c5.325,1.309,10.913,2.003,16.639,1.964
				c6.097-0.049,12.017-0.86,17.586-2.394l-3.136,4.983C101.933,163.31,97.097,163.837,92.144,163.876z M126.72,171.057
				l-4.944-2.423l-12.125-5.979l0.733-1.192l3.332-5.364l11.372-18.192c0.674-0.176,13.639-3.752,21.797-6.038l6.155-1.69
				l0.186-0.049l2.589,13.883l0.987,5.178C148.478,158.532,138.249,165.977,126.72,171.057z M155.132,126.789l-5.823,1.593
				c6.292-9.682,10.2-21.045,10.884-33.209l3.762,4.612C162.743,109.486,159.704,118.631,155.132,126.789z M164.785,96.482
				l-0.508-0.625l-3.957-4.905l-11.49-14.235l-2.335-2.931l0.049-0.625l1.339-21.26l0.42-6.282l0.068-0.967
				c1.417,0.264,8.031,1.368,13.639,2.276l5.335,0.928c6.087,10.542,10.005,22.471,11.197,35.202l-3.84,3.742L164.785,96.482z"/>
		</g>
	</g>
</g>
<g>
</g>
<g>
</g>
<g>
</g>
<g>
</g>
<g>
</g>
<g>
</g>
<g>
</g>
<g>
</g>
<g>
</g>
<g>
</g>
<g>
</g>
<g>
</g>
<g>
</g>
<g>
</g>
<g>
</g>
</svg>
