<?xml version="1.0" encoding="iso-8859-1"?>
<!-- Generator: Adobe Illustrator 19.1.0, SVG Export Plug-In . SVG Version: 6.00 Build 0)  -->
<svg version="1.1" id="Capa_1" xmlns="http://www.w3.org/2000/svg" xmlns:xlink="http://www.w3.org/1999/xlink" x="0px" y="0px"
	 viewBox="0 0 465.978 465.978" style="enable-background:new 0 0 465.978 465.978;" xml:space="preserve">
<g>
	<g>
		<g>
			<path style="fill:#010002;" d="M52.344,0v361.291H166l66.974,104.687l67.004-104.687h113.656V0H52.344z M294.097,57.39
				c12.535,0,22.706,10.181,22.706,22.745c0,12.535-10.171,22.716-22.706,22.716c-12.555,0-22.764-10.181-22.764-22.716
				C271.332,67.57,281.552,57.39,294.097,57.39z M167.26,54.361c12.594,0,22.823,10.229,22.823,22.852
				c0,12.594-10.229,22.833-22.823,22.833c-12.633,0-22.862-10.239-22.862-22.833C144.398,64.591,154.628,54.361,167.26,54.361z
				 M210.552,198.031c-5.305,0-9.633-4.318-9.633-9.663v-0.059h-0.02V136.05h-6.243l0.039,164.002
				c0,7.152-5.823,12.965-12.975,12.965c-7.103,0-12.838-5.755-12.936-12.828l-0.098-0.098V194.377h-5.843l0.02,105.625
				c0,7.201-5.823,13.024-13.014,13.024c-7.191,0-13.014-5.823-13.014-13.024l0.059-163.68h-6.009v52.007h-0.078l0.078,0.391
				c0,5.364-4.309,9.663-9.633,9.663c-5.344,0-9.653-4.299-9.653-9.663l0.02-0.391h-0.039l0.02-56.178
				c0,0-1.163-24.093,31.636-24.709h45.803c0,0,29.047-0.361,31.147,24.709v56.237C220.185,193.713,215.896,198.031,210.552,198.031
				z M365.272,190.811c0,5.305-4.27,9.614-9.575,9.614c-5.305,0-9.594-4.309-9.594-9.614v-0.078l-18.495-52.016h-6.243l29.35,88.889
				h-29.33l0.02,74.41c0,7.122-5.764,12.897-12.897,12.897c-7.083,0-12.809-5.686-12.877-12.789l-0.098-0.049v-74.478h-5.803
				l0.02,74.361c0,7.142-5.823,12.945-12.975,12.945c-7.171,0-12.936-5.803-12.936-12.945v-74.419h-29.183l29.223-88.567h-5.979
				l-18.485,51.753h-0.059l0.059,0.42c0,5.295-4.299,9.604-9.604,9.604c-5.286,0-9.614-4.318-9.614-9.604l0.059-0.42h-0.059
				l18.514-55.944c0,0,8.09-23.976,40.722-24.572h27.132c0,0,38.152-0.322,40.263,24.572l18.475,55.944L365.272,190.811z"/>
		</g>
	</g>
</g>
<g>
</g>
<g>
</g>
<g>
</g>
<g>
</g>
<g>
</g>
<g>
</g>
<g>
</g>
<g>
</g>
<g>
</g>
<g>
</g>
<g>
</g>
<g>
</g>
<g>
</g>
<g>
</g>
<g>
</g>
</svg>
