<?xml version="1.0" encoding="iso-8859-1"?>
<!-- Generator: Adobe Illustrator 19.1.0, SVG Export Plug-In . SVG Version: 6.00 Build 0)  -->
<svg version="1.1" id="Capa_1" xmlns="http://www.w3.org/2000/svg" xmlns:xlink="http://www.w3.org/1999/xlink" x="0px" y="0px"
	 viewBox="0 0 203.6 203.6" style="enable-background:new 0 0 203.6 203.6;" xml:space="preserve">
<g>
	<g>
		<g>
			<path style="fill:#010002;" d="M150.133,53.12c-20.146-22.491-66.974-22.423-90.462-5.794
				c-25.158,17.811-13.649,51.547-9.536,76.569c3.947,23.986,3.039,47.805,2.931,71.928c-0.01,2.443-0.01,4.885-0.01,7.328
				c0,0.107,7.972,0.42,8.412,0.449l81.503-0.449c5.784-0.694,7.044,1.124,8.344-4.719c1.417-6.224-0.616-15.056-0.762-21.485
				c-0.401-14.597-0.42-29.271,1.358-43.77C154.793,108.937,168.852,74.048,150.133,53.12z M59.29,107.755l-0.254-46.819
				l82.744-0.498l0.244,46.838L59.29,107.755z M119.279,122.049l22.481-0.137l0.107,10.376l-22.53,0.147L119.279,122.049z
				 M61.869,122.371l22.423-0.137l0.068,10.366l-22.442,0.117L61.869,122.371z M91.942,3.322l0.147,24.474l-5.52,0.029l0.02,6.566
				l30.033-0.166l-0.039-6.536l-5.139,0.01l-0.137-24.484l10.767-0.059V0L80.218,0.234l0.02,3.126L91.942,3.322z M110.505,3.234
				l0.137,24.494l-17.713,0.068L92.782,3.312L110.505,3.234z"/>
		</g>
	</g>
</g>
<g>
</g>
<g>
</g>
<g>
</g>
<g>
</g>
<g>
</g>
<g>
</g>
<g>
</g>
<g>
</g>
<g>
</g>
<g>
</g>
<g>
</g>
<g>
</g>
<g>
</g>
<g>
</g>
<g>
</g>
</svg>
