<?xml version="1.0" encoding="iso-8859-1"?>
<!-- Generator: Adobe Illustrator 19.1.0, SVG Export Plug-In . SVG Version: 6.00 Build 0)  -->
<svg version="1.1" id="Capa_1" xmlns="http://www.w3.org/2000/svg" xmlns:xlink="http://www.w3.org/1999/xlink" x="0px" y="0px"
	 viewBox="0 0 415.828 415.828" style="enable-background:new 0 0 415.828 415.828;" xml:space="preserve">
<g>
	<g>
		<g>
			<path style="fill:#010002;" d="M195.34,72.758v-4.23h1.055v4.23H195.34z M219.179,68.528V37.097h-22.784v31.431H219.179z
				 M219.179,72.758h1.055v-4.23h-1.055V72.758z M196.395,35.065h-1.055v2.032h1.055V35.065z M155.868,203.063h28.871v-13.278
				h-28.871V203.063z M369.122,0v322.406H267.649l-59.774,93.422l-59.764-93.422H46.706V0H369.122z M180.313,37.097h15.027v31.431
				h-7.074v8.471h38.573v-8.471h-6.605V37.097h13.825v-4.064h-53.746C180.313,33.033,180.313,37.097,180.313,37.097z
				 M276.823,176.498h-0.02v-56.814c0-36.443-29.525-38.485-65.968-38.485h-7.328c-36.433,0-65.988,2.042-65.988,38.485v56.814
				c0,37.713,2.872,54.566,9.682,61.826l-3.146,55.211l10.737,0.606l2.472-43.223h-9.731v-9.731h3.41
				c2.003,1.084,4.25,1.72,6.771,2.022l-0.44,7.709h1.739l-3.166,42.93h103.095l-2.052-42.93h0.195l2.443,43.223l10.767-0.606
				l-3.283-57.8c-1.954,2.511-4.201,4.27-6.732,5.452h5.159v9.712h-8.363l-0.479-8.412c1.28-0.332,2.521-0.762,3.683-1.299h-3.752
				l0.068,1.299c-8.764,2.228-20.361,0-34.752,0h-34.821c-12.301,0-21.924,1.641-29.291,0.703l0.117-2.003h98.688l-1.505-26.536
				h-95.669l-1.505,26.536h-6.878c-1.358-0.723-2.609-1.641-3.742-2.863l1.964-34.43h116.021l1.827,31.831
				C273.54,227.313,276.823,210.303,276.823,176.498z M152.722,170.968h106.251v-60.155H152.722V170.968z M229.643,203.063h28.871
				v-13.278h-28.871V203.063z M159.405,246.052l-0.361,4.846h97.868l-0.215-4.846H159.405z M219.179,35.065v2.032h1.055v-2.032
				H219.179z"/>
		</g>
	</g>
</g>
<g>
</g>
<g>
</g>
<g>
</g>
<g>
</g>
<g>
</g>
<g>
</g>
<g>
</g>
<g>
</g>
<g>
</g>
<g>
</g>
<g>
</g>
<g>
</g>
<g>
</g>
<g>
</g>
<g>
</g>
</svg>
