<?xml version="1.0" encoding="iso-8859-1"?>
<!-- Generator: Adobe Illustrator 19.1.0, SVG Export Plug-In . SVG Version: 6.00 Build 0)  -->
<svg version="1.1" id="Capa_1" xmlns="http://www.w3.org/2000/svg" xmlns:xlink="http://www.w3.org/1999/xlink" x="0px" y="0px"
	 viewBox="0 0 203.542 203.542" style="enable-background:new 0 0 203.542 203.542;" xml:space="preserve">
<g>
	<g>
		<g>
			<path style="fill:#010002;" d="M15.798,150.626h-3.595v-14.264h3.605L15.798,150.626L15.798,150.626z M71.791,54.077h130.949
				v20.85h-30.747v17.039h30.747v74.136h-17.967l0.117-2.198c0-20.4-16.502-36.873-36.863-36.873s-36.863,16.482-36.863,36.873
				l0.127,2.198H94.683v-15.476H71.801L71.791,54.077L71.791,54.077z M125.635,92.053h35.495v-17h-35.495
				C125.635,75.053,125.635,92.053,125.635,92.053z M80.643,91.663h35.505V74.633H80.643V91.663z M175.541,163.913
				c0,15.202-12.32,27.493-27.513,27.493c-15.212,0-27.523-12.301-27.523-27.493c0-15.222,12.32-27.542,27.523-27.542
				C163.211,136.371,175.541,148.711,175.541,163.913z M157.866,163.913c0-5.462-4.426-9.887-9.868-9.887
				c-5.422,0-9.848,4.426-9.848,9.887c0,5.413,4.426,9.848,9.848,9.848C153.44,173.761,157.866,169.326,157.866,163.913z
				 M26.282,136.371v-4.27H0v4.27h12.203h3.605H26.282z M15.798,158.373v-7.748h-3.595v7.748H15.798z M71.01,30.716v18.612h132.532
				V30.716C203.542,30.716,143.582-11.09,71.01,30.716z M71.791,150.626H15.798v7.748h-3.595v-7.748H0v15.486h94.663v-0.01H71.791
				V150.626z"/>
		</g>
	</g>
</g>
<g>
</g>
<g>
</g>
<g>
</g>
<g>
</g>
<g>
</g>
<g>
</g>
<g>
</g>
<g>
</g>
<g>
</g>
<g>
</g>
<g>
</g>
<g>
</g>
<g>
</g>
<g>
</g>
<g>
</g>
</svg>
