<?xml version="1.0" encoding="iso-8859-1"?>
<!-- Generator: Adobe Illustrator 19.1.0, SVG Export Plug-In . SVG Version: 6.00 Build 0)  -->
<svg version="1.1" id="Capa_1" xmlns="http://www.w3.org/2000/svg" xmlns:xlink="http://www.w3.org/1999/xlink" x="0px" y="0px"
	 viewBox="0 0 394.793 394.793" style="enable-background:new 0 0 394.793 394.793;" xml:space="preserve">
<g>
	<g>
		<g>
			<path style="fill:#010002;" d="M44.337,0v306.109h96.305l56.745,88.684l56.745-88.684h96.324V0H44.337z M305.757,239.144
				c-2.55,4.221-7.113,6.8-12.027,6.8H101.229c-5.061,0-9.731-2.716-12.222-7.122c-2.521-4.426-2.443-9.829,0.147-14.177
				l96.549-171.339c2.56-4.26,7.142-6.859,12.095-6.859l0.391,0.01c5.071,0.127,9.702,3.009,12.056,7.523l95.943,171.359
				C308.473,229.667,308.327,234.914,305.757,239.144z M101.229,231.846H293.73L197.797,60.497L101.229,231.846z M197.553,215.794
				h-0.303c-8.09,0-13.678-6.067-13.678-14.137c0-8.383,5.755-14.147,13.981-14.147c8.246,0,13.678,5.764,13.844,14.147
				C211.397,209.726,205.955,215.794,197.553,215.794z M206.414,179.751h-17.704l-3.429-70.384h24.543L206.414,179.751z"/>
		</g>
	</g>
</g>
<g>
</g>
<g>
</g>
<g>
</g>
<g>
</g>
<g>
</g>
<g>
</g>
<g>
</g>
<g>
</g>
<g>
</g>
<g>
</g>
<g>
</g>
<g>
</g>
<g>
</g>
<g>
</g>
<g>
</g>
</svg>
