<?xml version="1.0" encoding="iso-8859-1"?>
<!-- Generator: Adobe Illustrator 19.1.0, SVG Export Plug-In . SVG Version: 6.00 Build 0)  -->
<svg version="1.1" id="Capa_1" xmlns="http://www.w3.org/2000/svg" xmlns:xlink="http://www.w3.org/1999/xlink" x="0px" y="0px"
	 viewBox="0 0 252.363 252.363" style="enable-background:new 0 0 252.363 252.363;" xml:space="preserve">
<g>
	<g>
		<g>
			<path style="fill:#010002;" d="M127.09,140.367c19.658,0.811,37.136,9.604,49.476,23.106l-12.574,12.477
				c-9.301-10.454-22.637-17.293-37.635-17.889c-15.818-0.655-30.297,5.716-40.527,16.267l-12.457-12.486
				C86.994,147.89,106.133,139.508,127.09,140.367z M47.63,135.902l13.991,14.098c16.814-17.078,40.4-27.366,66.124-26.311
				c24.064,1.006,45.421,11.597,60.643,28.001l14.069-14.03c-18.602-19.765-44.63-32.642-73.892-33.834
				C97.076,102.518,68.196,115.072,47.63,135.902z M132.415,32.827C81.004,30.687,33.756,50.834,0,84.629l14.431,14.558
				C44.347,69.27,86.124,51.449,131.575,53.315c41.885,1.7,79.226,19.843,106.251,47.913l14.538-14.47
				C221.832,55.171,179.683,34.762,132.415,32.827z M22.462,110.617l14.812,14.89C60.722,102,93.452,87.853,129.171,89.318
				c33.033,1.368,62.49,15.818,83.691,38.055l14.9-14.812c-24.826-25.891-59.188-42.666-97.741-44.259
				C88.215,66.622,49.896,83.104,22.462,110.617z M120.71,171.163c-13.405,0-24.269,10.864-24.269,24.269
				s10.864,24.259,24.269,24.259s24.269-10.855,24.269-24.259S134.115,171.163,120.71,171.163z"/>
		</g>
	</g>
</g>
<g>
</g>
<g>
</g>
<g>
</g>
<g>
</g>
<g>
</g>
<g>
</g>
<g>
</g>
<g>
</g>
<g>
</g>
<g>
</g>
<g>
</g>
<g>
</g>
<g>
</g>
<g>
</g>
<g>
</g>
</svg>
