<?xml version="1.0" encoding="iso-8859-1"?>
<!-- Generator: Adobe Illustrator 19.1.0, SVG Export Plug-In . SVG Version: 6.00 Build 0)  -->
<svg version="1.1" id="Capa_1" xmlns="http://www.w3.org/2000/svg" xmlns:xlink="http://www.w3.org/1999/xlink" x="0px" y="0px"
	 viewBox="0 0 428.441 428.441" style="enable-background:new 0 0 428.441 428.441;" xml:space="preserve">
<g>
	<g>
		<g>
			<path style="fill:#010002;" d="M48.118,0v332.186H152.62l61.581,96.256l61.581-96.256h104.541V0H48.118z M207.137,294.551
				c-15.593,0-28.275-12.672-28.275-28.294c0-15.622,12.682-28.294,28.275-28.294c15.671,0,28.314,12.672,28.314,28.294
				C235.451,281.879,222.809,294.551,207.137,294.551z M257.717,243.814c-10.757-12.242-26.252-20.302-43.78-21.113
				c-18.427-0.85-35.358,6.487-47.336,18.749l-14.44-14.685c15.945-16.17,38.338-25.813,62.754-24.67
				c22.901,1.055,43.223,11.402,57.546,27.22L257.717,243.814z M286.354,215.676c-17.684-19.189-42.53-31.714-70.56-33.023
				c-30.024-1.397-57.585,10.464-77.272,30.258l-16.209-16.521c24.093-24.181,57.83-38.612,94.546-36.902
				c34.127,1.593,64.385,16.746,85.968,39.94L286.354,215.676z M315.019,187.45c-24.591-26.067-58.826-43.067-97.35-44.855
				c-41.64-1.934-79.91,14.323-107.374,41.592l-17.176-17.459c32.173-31.89,76.95-50.903,125.693-48.646
				c44.962,2.081,84.893,21.875,113.695,52.182L315.019,187.45z M344.281,157.153c-31.313-32.896-74.742-54.283-123.593-56.53
				c-53.003-2.482-101.834,18.045-136.831,52.739l-16.775-17.068c39.598-39.188,94.81-62.373,154.72-59.598
				c55.094,2.57,104.13,26.614,139.498,63.653L344.281,157.153z"/>
		</g>
	</g>
</g>
<g>
</g>
<g>
</g>
<g>
</g>
<g>
</g>
<g>
</g>
<g>
</g>
<g>
</g>
<g>
</g>
<g>
</g>
<g>
</g>
<g>
</g>
<g>
</g>
<g>
</g>
<g>
</g>
<g>
</g>
</svg>
